<?xml version="1.0" encoding="UTF-8"?>
<svg id="_レイヤー_2"
    xmlns="http://www.w3.org/2000/svg"
    xmlns:xlink="http://www.w3.org/1999/xlink" viewBox="0 0 1200 630">
    <defs>
        <style>
        .cls-1{
            fill:none;
        }
        .cls-2{
            clip-path:url(#clippath);    
        }
        .cls-3{
            fill:#fff;
        }
        .cls-4{
            fill:#cc505a;
        }
        .cls-5{
            fill:#5e3012;
        }
        .cls-6{
            opacity:.3;
        }
        .cls-7{
            fill:#fff;opacity:.65;
        }
        </style>
        <clipPath id="clippath">
            <rect class="cls-1" width="1200" height="630"/>
        </clipPath>
    </defs>
    <g id="_レイヤー_1-2">
        <g id="blog">
            <g class="cls-2">
                <rect class="cls-4" x="0" width="1200" height="630"/>
                <rect class="cls-7" x="0" width="1200" height="630"/>
                <path class="cls-5" d="m461.65,510.68c-.63.21-1.02.84-1.68,3.05-.35,1.16-1.5,1.16-1.37-.1.07-.32.39-3.08.39-5.22,0-.56.88-.77,1.15-.35.49.7,1.12.77,2.17.77h15.75c1.65,0,1.86-.32,2.59-.84.46-.31,1.16-.04.95.7-.28.98-.46,2.8-.49,4.45,0,1.61-1.22,1.61-1.4.21-.17-1.57-.46-2.27-.91-2.55-.49-.28-1.37-.21-7.39-.21-.21,0-.25.04-.25.42v15.89c0,1.47.04,2.17.07,2.94.04,1.26.32,1.68,3.01,1.96,1.4.14,1.4,1.26-.17,1.26-2.1,0-2.98-.07-4.34-.07s-3.89.07-4.52.07c-1.16,0-1.3-1.15.04-1.26,2.55-.28,2.8-.66,2.9-1.96.04-.42.07-1.33.07-3.12v-15.61c0-.52-.04-.59-.31-.59-4.9,0-5.74.03-6.27.17Z"/>
                <path class="cls-5" d="m491.68,522.62v3.85c0,1.79.04,2.98.07,3.43.07,1.16.28,1.58,2.59,1.89,1.23.18,1.19,1.26-.1,1.26-1.05,0-2.28-.07-4.03-.07-1.58,0-2.73.07-3.89.07-1.44,0-1.4-1.12-.14-1.26,2.31-.31,2.42-.7,2.49-1.71.07-.91.07-1.86.07-4.03v-10.36c0-2.59-.04-3.22-.11-4.13s-.56-1.26-2.45-1.54c-1.33-.18-1.3-1.26.03-1.26.7,0,2.28.07,3.12.07,1.75,0,3.43-.1,6.13-.1,7.25,0,8.33,4.13,8.33,6.3,0,2.34-1.37,5.11-5.18,6.69,1.68,2.48,3.36,4.97,5.42,7.53,1.05,1.33,1.68,1.96,2.45,2.21.67.17,1.09.28,1.65.31,1.29.11,1.23,1.19-.1,1.29-.88.07-2.49.18-3.33.04-1.29-.17-2.21-.46-4.27-3.57-1.54-2.17-2.84-4.27-4.38-6.65-.21-.35-.35-.42-.67-.38-1.09.11-2.49.14-3.71.14Zm.25-1.89c.28.1,1.23.21,2.59.21,3.22,0,6.02-.63,6.02-4.87,0-3.04-1.65-5.85-6.09-5.85-1.44,0-2.42.18-2.62.46-.18.32-.14.98-.14,4.83v4.87c0,.21.04.28.25.35Z"/>
                <path class="cls-5" d="m515.97,527.27c0,1.75.07,2.49.1,2.98.14.91.46,1.23,2.84,1.5,1.26.18,1.22,1.29-.18,1.29-1.08,0-1.96-.07-4.27-.07-1.47,0-3.15.07-3.99.07-1.16,0-1.3-1.08.03-1.26,2.17-.35,2.38-.7,2.45-1.71.07-1.08.07-2.13.07-4.31v-10.5c0-1.96-.04-2.52-.11-3.46-.1-1.26-.46-1.54-2.55-1.79-1.16-.14-1.26-1.26.14-1.26.63,0,2.31.07,3.05.07,1.61,0,4.48-.1,6.2-.1,5.88,0,8.61,3.12,8.61,6.72,0,2.1-.6,4.23-2.91,6.09-2.03,1.58-4.55,2.38-7.7,2.38-.49,0-1.47-.04-1.79-.04v3.39Zm.32-5.5c.73.35,2.31.42,3.32.42,3.57,0,5.57-1.65,5.57-5.74,0-3.64-1.96-6.2-6.27-6.2-1.47,0-2.14.14-2.59.42-.28.14-.35.49-.35,1.54v9c0,.31.07.46.32.56Z"/>
                <path class="cls-5" d="m554.37,514.88c-.07,1.33-1.23,1.29-1.4.11-.14-1.3-.35-2.28-.98-2.91-.84-.95-2.56-2.21-6.97-2.21-6.72,0-9.59,4.55-9.59,10.08,0,7.32,3.85,11.97,10.75,11.97,2.87,0,5.42-.56,5.42-3.12,0-1.29,0-3.05-.07-3.61-.07-.6-.14-.95-.6-1.16-.49-.25-1.16-.35-2.59-.53-1.23-.14-1.19-1.29.1-1.29.39,0,1.3.04,2.21.04,3.04,0,4.58-.17,5.25-.21,1.16-.11,1.19.95.11,1.26-1.4.38-1.51.6-1.51,2.07v2.87c0,1.12.11,1.26.91,1.58.6.17.31,1.01-.21,1.23-1.4.56-5.74,2.62-10.64,2.62-8.44,0-12.64-6.06-12.64-12.6,0-3.75,1.47-7.07,4.66-9.66,3.01-2.42,6.65-3.29,9.94-3.29,2.87,0,5.18.67,6.51,1.33.35-.38.74-.7,1.05-.88.49-.31,1.22-.14,1.08.38-.52,1.68-.74,3.61-.8,5.92Z"/>
                <path class="cls-5" d="m577.54,508.18c0-.5,1.07-1.04,2.25-1.04,1.01,0,2.96.37,3.23,1.18.17.5-.03,1.54.07,2.39.06.51.29,1.68.63,3.23,1.08-.37,1.96-.68,2.39-.82,1.73-.54,2.49-1.08,3.79-1.08.61,0,1.84.19,1.84,1.14,0,.69-.4,1.07-2.01,1.37-1.38.26-3.3.69-5.56,1.4.33,1.44.7,3.04,1.09,4.65,2.16-.61,4.07-1.15,5.16-1.43,1.49-.38,2.96-1.01,4.12-1.01,1.56,0,2.77.62,2.77,1.49,0,.62-.37,1.1-1.4,1.17-3.47.24-6.18.67-10.18,1.71.68,2.75,1.37,5.35,1.89,7.06.37,1.21.51,1.9.54,2.42.06.87-.32,1.44-1.13,1.56-1.02.14-1.69-.52-2.01-1.74-.23-.89-.3-2.24-.6-4.06-.15-.9-.54-2.66-.99-4.61-3.13.91-5.65,1.9-7.08,2.51-.9.38-1.76.89-2.44.89-1.11,0-2.98-1.03-3.36-2.33h0c-.17-.57.11-.95.64-.84,1.37.29,2.2.54,3.68.16,1.97-.5,5.07-1.43,8.11-2.3-.4-1.66-.8-3.29-1.1-4.52-1.15.41-2.26.84-3.14,1.15-.93.33-1.63.62-2.45.62-1.44,0-3.08-1.37-3.43-2.28h0c-.25-.63.05-1.12.84-.84.8.28,2.03.55,2.73.55.94,0,2.96-.58,4.94-1.21-.62-2.41-1.12-4.2-1.41-4.86-.21-.49-.43-.64-1.13-.84-.73-.2-1.31-.34-1.31-.84h0Zm16.42,4.24c-.58-.76-1.27-1.41-2.41-2.23-.68-.49-.46-1,.4-.91,1.71.17,3.03.65,3.88,1.39.83.72,1.16,1.35,1.13,2.25-.02.67-.52,1.1-1.23,1.08-.59-.02-.97-.54-1.77-1.58h0Zm3.53-2.87c-.64-.81-1.41-1.43-2.62-2.06-.75-.39-.56-.95.28-.93,1.63.04,3.03.46,4,1.18.8.6,1.14,1.21,1.14,2.11,0,.69-.46,1.16-1.15,1.16-.61,0-.85-.45-1.65-1.45h0Z"/>
                <path class="cls-5" d="m612.57,516.34c-.72-.39-1.51-.66-1.51-1.12s.83-.84,1.75-.84c1.82,0,4.38,1.61,4.38,3.05,0,.78-.67,2.08-1.59,3.77-1.26,2.31-4.56,7.21-10.72,10.92-.96.58-1.69-.74-.87-1.35,5.29-3.99,9.86-10.54,9.86-12.78,0-.86-.43-1.17-1.29-1.65h0Zm6.09-4.19c1.9,0,4.07,1.17,4.07,2.21,0,.6-.24,1.64-.34,2.71-.14,1.61-.31,4.96-.37,6.17-.05,1.04.18,1.25,1.12.66,3.45-2.16,7.75-6.09,11.37-9.81.82-.84,1.91.09,1.17,1.06-3.07,4.01-7.64,8.41-11.62,11.4-1.02.76-1.78,2.06-2.71,2.06s-2.17-1.7-2.17-3.03c0-.93.44-1.84.59-3.92.11-1.5.21-3.87.07-5.06-.14-1.24-.28-1.79-1.22-2.28-.73-.38-1.71-.71-1.71-1.19,0-.56,1.12-.98,1.75-.98Z"/>
                <path class="cls-5" d="m649.45,507.19c.66-.2,1.13-.29,1.69-.29,1.66,0,3.72.97,3.72,1.91,0,.62-.95,2.57-1.07,7.79,4.29.61,8.61,2.63,8.61,5.48,0,.84-.45,1.59-1.5,1.59-.89,0-1.51-.91-2.16-1.88-1.09-1.61-2.62-2.84-4.96-3.69.01,7.19.35,12.61.35,13.86,0,1.33-.61,1.92-1.47,1.92-1.05,0-1.82-1.03-1.82-2.91,0-1.03.26-3.46.35-4.7.14-1.92.35-5,.35-7.97s-.02-5.63-.14-7.66c-.06-1.09-.54-1.63-1.98-2.26-.72-.32-.72-.98.04-1.21h0Zm9.7,3.71c-.68-.49-.46-1,.4-.91,1.71.17,3.03.65,3.88,1.39.83.72,1.16,1.35,1.13,2.25-.02.67-.51,1.1-1.23,1.08-.59-.02-.97-.54-1.77-1.58-.58-.76-1.27-1.41-2.41-2.23Zm5.94-.64c-.64-.81-1.41-1.43-2.62-2.06-.75-.4-.56-.95.28-.93,1.63.04,3.03.46,4,1.18.8.6,1.14,1.21,1.14,2.11,0,.69-.46,1.16-1.15,1.16-.61,0-.85-.45-1.65-1.45h0Z"/>
                <path class="cls-5" d="m695.38,516.81c.56-.67,1.33-1.5,1.64-1.5.63,0,2.87,2.13,2.87,2.87,0,.46-.7.81-1.61,1.01-1.64,3.85-3.71,6.86-6.47,9.17,3.57,2.17,8.02,3.43,13.06,3.67,1.19.04,1.16.84.21,1.19-.95.38-1.44.73-1.71,1.16-.35.56-.63.94-1.75.8-4.66-.7-8.75-2.42-12.04-5.11-3.85,2.52-9.1,4.48-15.23,5.43-1.02.14-1.26-1.12-.32-1.33,6.13-1.29,10.68-3.36,13.83-5.67-2.66-2.7-4.58-6.16-5.64-10.29h-5.01c-.46,0-.77-.14-.77-.7,0-.53.31-.7.77-.7h10.92c.04-1.71.04-3.82,0-5.84h-13.55c-.46,0-.77-.14-.77-.7,0-.52.31-.7.77-.7h13.55c-.04-2.24-.14-4.27-.28-5.36-.04-.32.17-.49.49-.49.59,0,4.17.1,4.17,1.01,0,.77-.77,1.05-1.86,1.3v3.54h8.51c.81-1.19,1.82-2.59,2.42-2.59.8,0,3.43,2.24,3.43,3.15,0,.52-.63.84-2.06.84h-12.29v5.84h4.73Zm-11.55,1.4c1.12,3.57,3.15,6.48,5.95,8.72,2.66-2.49,4.38-5.15,5.74-8.72h-11.69Z"/>
                <path class="cls-5" d="m723.14,518.52c.73-1.12,1.64-2.35,2.13-2.35.7,0,2.84,2.13,2.84,2.94,0,.52-.74.81-1.61.81h-17.89c-.46,0-.77-.14-.77-.7,0-.52.31-.7.77-.7h10.54c-.35-.07-.49-.49-.25-1.02,1.05-1.96,1.86-4.06,2.14-6.09.07-.35.28-.59.63-.52,1.19.21,3.19,1.12,3.22,1.75.07.53-.49.73-1.54.77-.7,1.26-1.82,3.33-3.4,4.8-.21.17-.42.28-.6.32h3.78Zm-13.55-8.51c-.46,0-.77-.14-.77-.7,0-.52.31-.7.77-.7h6.97c.04-1.44,0-3.15-.1-4.24-.04-.35.17-.52.49-.52.59,0,3.99.1,3.99,1.05,0,.74-.77,1.02-1.86,1.26v2.45h3.4c.7-1.09,1.61-2.31,2.1-2.31.7,0,2.9,2.13,2.9,2.94,0,.49-.7.77-1.64.77h-16.24Zm11.69,13.65c.53-.7,1.19-1.5,1.58-1.5.7,0,2.73,1.5,2.73,2.27,0,.46-.59.74-1.19.98-.07,2.21,0,6.72.04,7.84,0,1.08-.56,1.37-1.5,1.37-.81,0-1.05-.63-1.05-1.19v-1.23h-7.46v1.75c0,.74-.56,1.09-1.57,1.09-.63,0-.95-.35-.95-.95,0-2.31.21-8.33-.14-11.45-.03-.28.21-.49.49-.46.67.07,2.56.81,3.26,1.47h5.78Zm-8.19-12.04c1.72.91,3.4,2.49,3.08,4.1-.17.98-.91,1.51-1.89,1.29-.91-.17-1.12-1.08-1.4-2.17-.21-.77-.53-1.58-.84-2.31-.32-.73.17-1.37,1.05-.91Zm8.82,19.18c0-1.92.03-4.38.03-5.74h-7.49c-.07,1.02-.07,3.29-.07,3.96v1.79h7.53Zm14.77-24.22c.63-.81,1.36-1.58,1.82-1.58.63,0,2.91,1.92,2.91,2.83,0,.53-.63.81-1.57,1.12-1.33,2.52-3.29,5.71-4.13,7.25-.25.49-.21.67.17,1.05,2.52,2.63,4.41,4.41,4.41,9,0,3.01-1.12,5.67-4.06,5.67-.6,0-.88-.25-1.16-.67-.46-.7-.91-1.01-1.68-1.26-.88-.28-.77-1.22.04-1.22.46,0,1.4.11,2.42.11,1.54,0,1.86-1.26,1.86-4.03,0-2.13-1.05-4.55-3.43-6.9-.67-.67-.67-1.02-.17-2,.88-1.79,2.38-5.81,2.87-7.98h-5.43l-.21.04c-.17,2.38-.17,10.36-.17,11.76,0,1.22.07,12.99.07,14.42,0,.8-.49,1.22-1.61,1.22-.7,0-.98-.38-.98-1.02,0-4.34.42-23.56-.14-28.81-.04-.21.17-.49.49-.49.49.03,2.62.73,3.43,1.47h4.27Z"/>
                <path class="cls-5" d="m357.04,575.11l16.02,18.81c.31.41.27.99-.09,1.3l-.32.27c-.41.36-.99.27-1.3-.14l-16.96-19.89c-.18-.23-.36-.5-.36-.86s.18-.63.36-.85l16.96-19.89c.31-.4.9-.5,1.3-.13l.32.27c.36.31.4.9.09,1.3l-16.02,18.81c-.13.14-.22.32-.22.5s.09.36.22.5Z"/>
                <path class="cls-5" d="m413.6,583.44c-3.32,5.7-9.3,9.54-15.83,9.54-4.83,0-9.63-2.39-9.63-11.32,0-6.32.95-14.36,1.04-17.39.08-2.65-.54-3-2.14-4.28-.96-.77-.95-1.23.07-1.77,1.04-.55,2.14-.52,3.22-.1,1.87.73,3.21,2.26,3.21,3.49,0,1.95-2.34,10.83-2.34,19.94,0,5.78,2.64,7.78,6.87,7.78,5.37,0,9.79-2.2,14.03-6.97.91-1,2.24-.17,1.51,1.08h0Z"/>
                <path class="cls-5" d="m442.54,567.2c1.57.66,2.79,2.43,2.79,4.06,0,.73-.18,1.23-.56,1.51,2.04-.71,3.83-1.04,5.5-1.04,4.26,0,7.37,2.63,7.37,6.33,0,3.48-3.09,5.98-7.23,5.98s-7.12-3.29-8.12-5.26c-.49-.97.57-1.69,1.32-.94h0c1.81,1.81,3.6,3.3,6.35,3.3s4.47-1.35,4.47-3.6-1.72-3.67-4.64-3.67c-2.67,0-5.83,1.35-10.76,4.6,2.51,3.86,4.72,8.87,5.6,11.42.56,1.64.81,3.02.68,4.03-.11.87-.72,1.41-1.59,1.41-.96,0-1.57-.74-1.88-2.24-.93-4.59-2.61-9.45-4.92-13.19-3.47,2.4-4.74,3.42-6.16,3.42-1.04,0-2.22-.68-2.99-1.69-.43-.55-.51-1.09-.56-1.55-.08-.61.53-1.06,1.1-.75.86.46,1.4.62,1.86.62,1.09,0,2.9-1.04,5.08-2.35-.84-.97-1.83-1.93-2.64-2.74-.91-.91-1.01-2.11-.24-3.05,1.54-1.88,2.71-1.64,4.85-1.64,1.53,0,3.05-.07,3.81-.17.81-.1.98-.75.42-1.86-.4-.81.2-1.3,1.1-.92h0Zm-5.1,9.08c2.44-1.41,4.58-2.47,6.51-3.21-.13.02-.28.03-.43.03-.81,0-1.69-.25-2.65-.53-1.26-.36-2.69-.7-4.41-.7-.96,0-1.56.77-1.25,1.45.18.38,1.29,1.75,2.23,2.96Z"/>
                <path class="cls-5" d="m497.73,582.12c0-3.06-1.95-5.01-5.15-5.01-2.82,0-5.92,1.83-8.06,4.71-1.03,1.39-1.72,3.92-3.21,3.92s-2.51-1.79-2.51-4.12c0-2.89,1.24-8.86,1.92-12.81-1.28.09-2.77.12-3.86.03-2.65-.21-4.2-2.1-4.91-4.93-.23-.93.56-1.4,1.3-.74,1.62,1.43,3.12,2.3,4.66,2.4,1.2.08,2.24.07,3.3-.01.3-2.15.6-3.99.6-4.79,0-1.44-2.81-1.3-2.81-2.51,0-.88,1.81-1.53,3.39-1.53,2.09,0,3.15.41,3.15,2.37,0,.7-.45,2.27-.92,3.95-.07,1.51,1.14,1.7,2.51,1.1,2.45-1.07,3.07-2.44,4.33-2.44.74,0,1.51.57,1.51,1.28,0,.56-.12,1.16-.81,1.76-.99.85-3.55,2.68-8.82,3.72-.82,4.26-1.41,8.31-1.37,10.92,0,.57.17.61.53.29,3.12-2.81,6.46-4.82,10.46-4.82,5.06,0,8.48,3.3,8.48,7.79,0,6.58-6.86,10.75-18.12,10.57-1.42-.02-1.56-1.76-.19-1.95,10.27-1.38,14.62-4.53,14.62-9.13Z"/>
                <path class="cls-5" d="m522.93,562.3c.51,1.37.46,2.25-.22,4.17-1.66,4.68-4.56,11.15-3.8,15.33.19,1.05,1.06,1.68,1.74.29.75-1.53,1.89-4.4,2.48-5.86.46-1.12,1.65-.74,1.33.47-.5,1.88-2.53,8.34-2.53,10.25s1.09,3.6,1.09,5.15c0,.98-.5,1.57-1.72,1.57-2.48,0-4.93-6.27-4.93-11.65,0-5.65,1.7-10.66,2.77-15.2.5-2.13.65-3.38-.12-5.1-.55-1.22-1.2-2.21-1.47-2.82-.38-.85.18-1.24.96-.97,1.87.64,3.82,2.71,4.43,4.36Zm7.28,6.91c2.12,2.03,2.88,2.75,5.08,2.75,1.51,0,3.16-.21,4.8-.8.04-1.38.09-2.5.11-3.35.03-1.53-1.39-2.22-1.37-3.13,0-.58.99-.77,1.79-.76.74.01,1.84.12,2.45.37.75.31.8.71.52,1.68-.08.29-.16.55-.23.81.52,1.67,1.76,1,2.83,1s1.63.54,1.63,1.58c0,1.56-2.94,2.95-5.39,3.91-.04,3.59.44,7.12.62,9.98,2.5.67,4.54,1.8,6.54,3.42,1.49,1.21,2.09,2.56,2.07,3.57-.02,1.1-.48,1.67-1.34,1.66-1.26-.03-1.7-.97-2.89-2.25-1.31-1.42-2.76-2.55-4.35-3.38-.37,3.6-3.08,5.82-7.37,5.74-3.28-.06-5.99-1.57-5.94-4.52.07-3.81,4.57-5.04,7.16-5,1.18.02,2.27.09,3.28.22-.04-2.21-.14-5.69-.15-8.59-1.75.52-3.59.84-4.89.84-3.1,0-6.12-1.84-6.12-5.04,0-1.12.5-1.31,1.17-.68h0Zm3.87-8.68c1.74,0,5.84-.75,8.12-1.78.49-.22.9-.45,1.76-.33,1.49.21,2.4.83,2.4,1.66,0,.56-.23.99-1.25,1.41-1.27.52-3.59,1.21-7.12,1.74-1.35.2-3.41.32-4.87-.1-1.25-.36-2.38-1.62-2.64-2.41-.27-.82.08-1.18.88-.8.94.45,1.72.61,2.71.61Zm6.07,24.58c-1.15-.31-2.36-.47-3.63-.5-2.38-.04-4.48.72-4.51,2.25-.03,1.71,1.81,2.12,3.48,2.15,2.28.04,4.29-1.24,4.65-3.9Z"/>
                <path class="cls-5" d="m567.03,581.67c1.96,4.31,6.1,5.44,11.25,5.44s7.73-1.18,9.82-1.18c1.28,0,2.49.46,2.49,1.5,0,1.9-3.92,3.44-11.81,3.44-7.29,0-12.4-2.36-13.64-8.4-.36-1.74,1.23-2.24,1.89-.8Zm8.37-11.18c-1.36.59-1.95-.69-.97-1.42.83-.62,2.16-1.56,2.8-2.08.73-.59.69-1.01-.36-1.11-3.48-.34-6.39-1.34-7.98-3.5-.77-1.05.09-2.22,1.3-1.35,1.52,1.09,3.61,1.64,6.05,1.78,2.71.15,4.75-.42,6.28-.42,2.55,0,4.56.98,4.56,2.12,0,.97-.66,1.46-2.8,1.91-2.83.59-6.92,3.2-8.88,4.06h0Z"/>
                <path class="cls-5" d="m623.31,591.99c-1.87.31-2.25-1.02-.57-1.54,9.98-3.07,12.89-9,12.89-15.25,0-7.63-5.05-11.63-11.5-12.08,1.58,5.23-.2,11.4-3.23,16.85-2.77,4.99-5.97,7.91-8.61,7.91-3.04,0-6.79-4.6-6.79-10.08,0-9.3,7.73-17.03,18.1-17.03,9.09,0,15.91,6.04,15.91,14.23,0,8.69-5.24,15.14-16.2,16.98h0Zm-10.83-8.3c1.45,0,3.47-1.93,5.63-5.41,2.95-4.74,5.02-10.3,3.8-15.17-8.22.5-13.3,7.28-13.3,13.58,0,3.77,1.97,6.99,3.87,6.99Z"/>
                <path class="cls-5" d="m655.35,566.2c0,1.71-.04,3.42-.13,5.26-.23,6.93-.95,15.84-7.7,21.69-1.08.99-2.25.14-1.39-1.08,4.09-5.71,5.71-11.38,5.8-21.87.04-4.14-.04-9.18-.41-13.77-.04-.72.27-.95.86-.86.76.14,2.61.99,3.69,1.75h23.49c.67-.9,1.53-1.84,2.03-1.84.94,0,3.64,1.98,3.64,2.97,0,.58-.76.99-1.58,1.35-.09,2.29,0,5.53,0,6.75,0,1.4-.67,1.71-1.98,1.71-1.04,0-1.4-.81-1.4-1.53v-.54h-24.93Zm14.76,22.54c0,1.84.31,2.16,6.84,2.16,5.85,0,7.29-.63,7.74-1.67.41-.9.76-2.16.95-2.75.27-.86,1.08-.86,1.17.04.04.58.18,1.67.22,2.38.18,1.4.99,1.21.99,2.25s-2.07,2.75-10.98,2.75-10.08-1.17-10.08-5.17v-3.15l-10.93,1.17c-.58.04-.99-.09-1.08-.81-.04-.67.32-.95.9-.99l11.16-1.17c0-1.48,0-3.1-.04-4.68l-8.95.95c-.58.04-.99-.09-1.08-.81-.04-.67.31-.94.9-.99l9.13-.95c0-1.75-.04-3.33-.09-4.41-3.01.54-6.12.99-9.04,1.17-1.3.09-1.53-1.3-.18-1.57,7.06-1.26,13.36-2.97,17.55-5.22,1.04-.54,1.26-.54,2.16.13.67.63,1.58,1.58,1.94,2.25.63.94-.27,1.44-1.98.58-1.53.54-3.6,1.12-5.94,1.71.13.09.22.18.22.27,0,.41-.18.72-1.48,1.08.04.63.04,1.98.04,3.64l6.12-.63c.77-1.35,1.71-2.92,2.34-2.97.86-.09,4.14,2.07,4.28,3.11.09.58-.67,1.03-2.21,1.17l-10.53,1.12v4.68l9.36-.99c.76-1.4,1.75-3.06,2.43-3.1.86-.09,4.28,2.16,4.41,3.19.09.63-.63,1.08-2.29,1.26l-13.95,1.49v3.46Zm10.21-24.34c0-1.71.04-3.92.04-5.27h-25.02c.04,1.8.04,3.56.04,5.27h24.93Z"/>
                <path class="cls-5" d="m728.39,582.36c-.88,0-2.25-1.32-2.94-2.28-1.6-2.23-3.05-5.28-4.16-8.05-.01,6.26-.6,11.28-2.78,14.92-2.58,4.32-6.53,6.25-11.49,6.25-5.79,0-9.52-3.77-9.63-9.13-.17-8.34,4.66-14.01,7.2-17.35.78-1.03.51-1.22-.53-.81-1.11.43-3.09,1.14-4.4,1.14-1.89,0-3.14-1.87-3.53-3.5h0c-.22-.94.12-1.38.99-.94,1.02.51,2.31.97,3.34.97,1.8,0,5.58-.73,7.55-1.9.44-.26.75-.41,1.31-.47,1.68-.18,3.19.43,3.4,1.46.21,1.03-.39,1.85-1.84,2.23-1.78.47-3.09,1.39-4.32,2.91-3.8,4.72-6.17,9.43-6.17,15.23,0,4.13,2.46,6.53,6.39,6.53,8.34,0,12.6-7.13,12.6-20.79,0-.95-.01-1.82-.03-2.59-.33-1.44-.6-3.04-.6-4.02,0-1.72.53-2.66,1.53-2.66,1.25,0,1.84.72,1.84,2.21,0,1.39,0,3.23.22,4.7.58,3.81,2.72,8.06,6,11.04,1,.91,1.69,1.89,1.69,2.98,0,1.16-.65,1.93-1.62,1.93h-.04Zm-4.43-22.24c-.83-.69-.5-1.32.59-1.13,2.18.38,3.83,1.11,4.85,2.13,1,1,1.37,1.83,1.25,2.99-.09.86-.76,1.37-1.67,1.27-.76-.08-1.2-.78-2.13-2.19-.67-1.02-1.5-1.92-2.89-3.07Zm4.05-3.3c-.97-.51-.72-1.22.36-1.19,2.09.04,3.9.59,5.14,1.52,1.03.77,1.47,1.55,1.47,2.71,0,.89-.59,1.48-1.49,1.48-.78,0-1.1-.57-2.12-1.87-.82-1.04-1.82-1.84-3.36-2.65Z"/>
                <path class="cls-5" d="m749.94,593.68c-1.62,0-1.77-3.13-2.37-4.79-.31-.87-1.18-2.87-2.29-5.1-1.12,2.08-2.2,4.04-2.95,5.27-.65,1.06-1.27,1.41-2.09,1.41-.87,0-1.54-.96-1.54-1.94,0-.86.57-1.52,1.14-2.27,1.02-1.35,2.37-3.33,3.79-5.52-1.4-2.21-3.69-5.43-3.69-6.95,0-2.89,5.43-6,7.93-6.78.64-.2,1.12-.33,1.53-.38.19-2.55.33-4.47.33-6.06,0-1.2-.49-1.96-2-3.12-.69-.53-.35-1.47.47-1.42,1.05.07,1.94.3,2.8.72,1.71.83,2.88,2.12,2.88,3.25,0,.9-.75,2.75-.98,3.58-.33,1.17-.71,2.44-1.05,4,.15.14.29.28.4.43.44.57.63,1.25.5,1.81,4.83-4.35,9.08-6.12,12.06-6.12,3.38,0,5.29,2.49,5.29,5.99,0,4.94-2.35,9.23-2.35,12.78,0,2.99.84,4.34,2.88,4.34,2.31,0,3.88-1.17,6.2-3.91.76-.89,1.79-.24,1.28.9-1.72,3.87-4.79,6.37-7.92,6.37-3.76,0-5.92-2.47-5.92-6.8,0-4.66,2.26-8.55,2.26-14.06,0-2.11-1.05-3.22-3.01-3.22-2.91,0-7.49,2.42-12.41,8.12,0,.35-.01.71-.01,1.09,0,4.42.41,7.23.74,9.5.22,1.53.41,2.82.41,4.18,0,2.54-1.04,4.72-2.29,4.72Zm-5.27-14.58c1.52-2.38,3.07-4.88,4.35-7,.05-.83.1-1.62.15-2.36-.19,0-.44.04-.78.11-1.57.35-5.9,2.54-5.9,4.28,0,1.24.84,2.73,2.18,4.96Zm4.21,7.06c.12-1.1,0-5.95-.02-9-.75,1.35-1.65,3.02-2.56,4.71,1.12,2.01,1.69,3.38,2.21,4.41.24.49.31.44.37-.12Z"/>
                <path class="cls-5" d="m816.54,575.56c.81-.9,1.85-1.89,2.34-1.89.9,0,3.6,2.74,3.6,4,0,.54-1.26,1.03-2.48,1.03-.94.81-1.89,1.44-3.01,2.16-1.21.76-1.98.04-1.53-1.12.36-.54.81-1.44,1.26-2.38h-29.2v.22c-.27,2.61-1.71,4.46-3.78,4.46-1.03,0-1.66-.72-1.66-1.67,0-1.53,1.66-1.89,2.65-3.69.58-.95.58-2.21.67-3.33.04-.99,1.31-1.08,1.62-.13.23.67.36,1.48.45,2.34h29.07Zm-.76-16.02c.95-1.35,2.16-2.97,2.83-2.97.86,0,4.09,2.66,4.09,3.78,0,.63-.72.99-2.47.99h-37.03c-.58,0-.99-.18-.99-.9,0-.67.41-.9.99-.9h17.68c0-1.58-.04-3.33-.18-4.54-.04-.45.22-.67.63-.67.76,0,5.13.13,5.13,1.35,0,.95-.99,1.31-2.38,1.62v2.25h11.7Zm-7.11,21.96c.9-1.3,1.98-2.74,2.61-2.74.86,0,3.74,2.56,3.74,3.6,0,.63-.77.94-2.16.94h-7.2v.04c0,.68-.81.9-1.4,1.12l-.09,7.42c.04,2.25-1.67,3.06-3.33,3.06s-.9-1.44-4.59-2.29c-1.04-.27-.85-1.62.04-1.58,1.08.13,2.97.36,3.6.36.99-.05,1.3-.32,1.3-1.17.09-1.58,0-5.04-.13-6.98h-11.25c-.58,0-.99-.18-.99-.9,0-.67.41-.9.99-.9h18.85Zm1.12-16.92c.63-.86,1.44-1.8,1.93-1.8.9,0,3.55,1.93,3.55,2.92,0,.58-.76.94-1.53,1.26-.04,1.89,0,4.41,0,5.44,0,1.4-.68,1.71-1.94,1.71-1.04,0-1.35-.81-1.35-1.53v-.13h-16.24v.67c0,.94-.72,1.35-2.03,1.35-.81,0-1.21-.41-1.21-1.21,0-2.38.18-6.39-.18-9.81-.04-.36.31-.63.67-.58.85.09,2.92.9,3.92,1.71h14.4Zm.72,6.07l.04-4.27h-16.29c-.04.81-.04,2.43-.04,3.06v1.21h16.29Z"/>
                <path class="cls-5" d="m842.96,574.12l-16.02-18.81c-.31-.41-.27-.99.09-1.3l.31-.27c.41-.36.99-.27,1.3.13l16.96,19.89c.18.22.36.5.36.85s-.18.63-.36.86l-16.96,19.89c-.31.41-.9.5-1.3.14l-.31-.27c-.36-.31-.41-.9-.09-1.3l16.02-18.81c.13-.13.23-.31.23-.5s-.09-.36-.23-.5Z"/>
                <path class="cls-5" d="m543.08,48.65c2.59,0,10.35-.87,14.15-1.45,1.67-.25,2.4-1.22,3.17-1.22,1.62,0,4.82,2.4,4.82,3.73,0,1.03-1.73,1.77-2.74,3.5-5.42,9.26-11.93,15.63-23.1,20.32-1.41.59-2.01-.98-.83-1.64,10.43-5.87,17.59-13.6,20.79-21.33.41-.99.02-1.11-.88-1.03-2.37.2-8.52,1.49-10.9,2.09-2.05.52-3.48,1.05-4.93,1.05s-3.77-2.15-4.25-4.34c-.24-1.1.41-1.52,1.36-.97,1.27.75,2.06,1.32,3.33,1.32h0Zm23.51-2.3c-.69-.97-1.54-1.81-2.93-2.89-.83-.64-.53-1.26.54-1.12,2.14.29,3.77.94,4.81,1.9,1.02.94,1.4,1.74,1.32,2.86-.06.84-.69,1.36-1.58,1.3-.74-.05-1.2-.71-2.15-2.05h0Zm4.18-3.58c-.77-1.04-1.71-1.85-3.19-2.69-.93-.53-.67-1.21.39-1.15,2.04.11,3.78.69,4.96,1.64.98.78,1.38,1.56,1.34,2.68-.03.87-.62,1.43-1.49,1.4-.76-.02-1.05-.59-2.01-1.89h0Z"/>
                <path class="cls-5" d="m584.05,48.3c1.08.23,3.12.89,4.24,1.42.29.14.52.28.7.45,4.46-.13,10.78-.96,12.36-1.21,1.57-.24,2.13-1.14,3.18-1.14,1.41,0,4.69,2.1,4.69,3.64,0,.93-1.37,2.09-1.85,3.82-.51,1.85-1.13,4.84-1.76,7.6,1.12.43,1.85,1.28,1.85,2.13s-.43,1.23-1.49,1.23c-.73,0-2.74-.18-4.56-.18-2.49,0-6.5.31-8.15.49-.9.1-1.61.21-2.02.21-.24,0-.64-.11-1.07-.26.01.46.02.84.02,1.11,0,1.55-.81,2.04-1.62,2.04-1.21,0-1.93-1.64-1.93-3.47,0-1.71.08-2.74,0-4.81-.08-2.2-.41-6.03-.96-7.96-.38-1.34-1.22-2.37-2.46-3.9-.57-.7-.18-1.44.83-1.23h0Zm5.48,4c.14,2.95.4,8.04.54,11.63,3.5-.13,8.5-.57,10.79-.81.48-.05,1.01-.16,1.52-.26.67-3.34,1.57-8.54,1.67-10.19.07-1.16-.08-1.22-.97-1.17-3.95.21-9.19,1.36-11.43,1.36-.82,0-1.48-.24-2.12-.56Z"/>
                <path class="cls-5" d="m637.12,45.89c.22-.57.05-.94-.52-1.51-.65-.64-1.28-1.11-1.28-1.5,0-.43.53-.73,1.36-.71,1.88.03,5.53,1.54,5.51,2.61-.01.71-1.02,1.71-1.83,2.85-.26.36-.52.72-.78,1.08h0c1.17,0,4.01-.21,5.71-.45,1.54-.21,2.04-1,3.04-1,1.39,0,4.54,1.82,4.54,3.05,0,.97-1.8,1.85-2.98,3.7-5.75,9-13.21,16.53-23.95,21.65-1.17.56-1.92-.91-.84-1.58h0c9.61-5.98,17.84-14.31,21.85-22.7.33-.7-.01-1.07-.79-.99-1.58.16-3.4.47-4.51.7-.85.18-2.05.57-2.67.57-.43,0-.84-.18-1.25-.48-2.82,3.41-7.1,6.97-11.38,9.28-1.15.62-2.09-.66-.93-1.53,4.39-3.28,10.11-8.99,11.69-13.05Zm17,.48c-.72-.95-1.59-1.76-3.02-2.79-.85-.61-.57-1.25.5-1.14,2.15.22,3.8.82,4.87,1.74,1.05.91,1.45,1.69,1.41,2.82-.03.84-.65,1.38-1.54,1.35-.74-.03-1.22-.67-2.22-1.99h0Zm4.42-3.6c-.8-1.01-1.77-1.79-3.28-2.59-.94-.5-.7-1.19.35-1.16,2.04.04,3.8.57,5.01,1.48,1,.75,1.43,1.51,1.43,2.64,0,.87-.58,1.45-1.45,1.45-.76,0-1.07-.56-2.07-1.82h0Z"/>
                <path class="cls-5" d="m127.79,46.77H51.83c-.73-8.08-3.09-14.55-6.17-19.25-1.91-2.94-4.26-5.14-6.76-6.76-2.5-1.62-5.14-2.35-7.79-2.35s-5.14.88-7.35,2.5c-1.76,1.18-3.23,2.79-4.11,4.56-1.03,1.76-1.47,3.67-1.47,5.73,0,2.5.73,5,2.35,7.35,2.35,3.53,6.32,6.61,11.9,8.67,4.26,1.62,9.4,2.79,15.58,3.23v70.97c0,1.18.88,2.06,2.06,2.06s2.06-.88,2.06-2.06V50.74h75.53c1.18,0,2.06-.88,2.06-2.06,0-1.03-.88-1.91-1.91-1.91Zm-98.3-5.44c-2.5-1.62-4.41-3.23-5.58-5-1.18-1.76-1.62-3.53-1.62-5.14,0-1.32.29-2.64.88-3.82s1.62-2.35,2.94-3.38c1.47-1.18,3.09-1.62,4.85-1.62s3.67.59,5.58,1.76c2.79,1.76,5.73,5,7.79,9.84,1.47,3.38,2.64,7.64,3.23,12.49-7.93-.73-13.96-2.64-18.07-5.14Z"/>
                <path class="cls-5" d="m98.85,59.26h-36c-.59,0-1.03.15-1.47.59s-.59.88-.59,1.47v36c0,1.18.88,2.06,2.06,2.06s2.06-.88,2.06-2.06v-33.94h33.94c1.18,0,2.06-.88,2.06-2.06-.15-1.18-1.03-2.06-2.06-2.06Z"/>
                <path class="cls-5" d="m124.56,576.96H53.88v-1.91h0v-73.62c0-1.18-.88-2.06-2.06-2.06s-2.06.88-2.06,2.06v73.62h0v2.2c-8.08.73-14.55,3.09-19.25,6.17-2.94,1.91-5.14,4.26-6.76,6.76-1.62,2.5-2.35,5.14-2.35,7.79s.88,5.14,2.5,7.35c1.32,1.76,2.94,3.23,4.7,4.11,1.76,1.03,3.67,1.47,5.73,1.47,2.5,0,5-.73,7.35-2.35,3.53-2.35,6.61-6.32,8.67-11.9,1.62-4.26,2.79-9.4,3.23-15.58h70.97c1.18,0,2.06-.88,2.06-2.06s-.88-2.06-2.06-2.06Zm-80.23,22.63c-1.62,2.5-3.23,4.41-5,5.58-1.76,1.18-3.53,1.62-5.14,1.62-1.32,0-2.5-.29-3.82-1.03-1.18-.59-2.35-1.62-3.38-2.94-1.18-1.47-1.62-3.09-1.62-4.85s.59-3.67,1.76-5.58c1.76-2.79,5-5.73,9.84-7.79,3.38-1.47,7.64-2.64,12.49-3.23-.59,8.08-2.64,14.11-5.14,18.22Z"/>
                <path class="cls-5" d="m66.52,530.24c0-1.18-.88-2.06-2.06-2.06s-2.06.88-2.06,2.06v36c0,.59.15,1.03.59,1.47.44.44.88.59,1.47.59h36c1.18,0,2.06-.88,2.06-2.06s-.88-2.06-2.06-2.06h-33.94v-33.94Z"/>
                <path class="cls-5" d="m1180.47,25.47c-1.03-1.76-2.35-3.38-4.11-4.7-2.2-1.62-4.7-2.5-7.35-2.5s-5.29.88-7.79,2.35c-3.67,2.35-7.05,6.32-9.4,11.61-1.76,3.97-3.09,8.82-3.53,14.4h-75.82c-1.18,0-2.06.88-2.06,2.06s.88,2.06,2.06,2.06h75.53v70.68c0,1.18.88,2.06,2.06,2.06s2.06-.88,2.06-2.06V50.45c8.82-.73,15.72-2.79,20.57-5.73,2.94-1.76,5.29-3.97,6.76-6.32,1.62-2.35,2.35-4.85,2.35-7.35.15-1.91-.29-3.82-1.32-5.58Zm-4.26,10.87c-1.76,2.64-5,5.29-9.99,7.2-3.67,1.47-8.23,2.5-13.81,2.94.73-7.2,2.79-12.78,5.44-16.75,1.62-2.5,3.53-4.41,5.44-5.58,1.91-1.18,3.82-1.76,5.58-1.76s3.38.59,4.85,1.62c1.32,1.03,2.35,2.2,2.94,3.38.59,1.18,1.03,2.5,1.03,3.82.15,1.62-.29,3.38-1.47,5.14Z"/>
                <path class="cls-5" d="m1138.74,59.85c-.44-.44-.88-.59-1.47-.59h-36c-1.18,0-2.06.88-2.06,2.06s.88,2.06,2.06,2.06h33.94v33.94c0,1.18.88,2.06,2.06,2.06s2.06-.88,2.06-2.06h0v-36c0-.59-.15-1.03-.59-1.47Z"/>
                <path class="cls-5" d="m1164.75,580.79c-3.97-1.76-8.82-3.09-14.4-3.53v-2.2h0v-73.62c0-1.18-.88-2.06-2.06-2.06s-2.06.88-2.06,2.06h0v73.62h0v1.91h-70.53c-1.18,0-2.06.88-2.06,2.06s.88,2.06,2.06,2.06h70.97c.73,8.82,2.79,15.72,5.73,20.57,1.76,2.94,3.97,5.29,6.32,6.76,2.35,1.62,4.85,2.35,7.35,2.35,1.91,0,3.97-.44,5.73-1.47,1.76-1.03,3.38-2.35,4.7-4.11,1.62-2.2,2.5-4.7,2.5-7.35s-.88-5.29-2.35-7.79c-2.65-3.67-6.47-6.91-11.9-9.26Zm8.23,22.04c-1.03,1.32-2.2,2.35-3.38,2.94s-2.5,1.03-3.82,1.03c-1.62,0-3.38-.59-5.14-1.62-2.64-1.76-5.29-5-7.2-9.99-1.47-3.67-2.5-8.23-2.94-13.81,7.2.73,12.78,2.79,16.75,5.44,2.5,1.62,4.41,3.53,5.58,5.44,1.18,1.91,1.76,3.82,1.76,5.58.15,1.76-.44,3.53-1.62,5Z"/>
                <path class="cls-5" d="m1097.6,566.24c0,1.18.88,2.06,2.06,2.06h36c.59,0,1.03-.15,1.47-.59.44-.44.59-.88.59-1.47v-36c0-1.18-.88-2.06-2.06-2.06s-2.06.88-2.06,2.06v33.94h-33.94c-1.03,0-2.06,1.03-2.06,2.06Z"/>
                <g class="cls-6">
                    <path class="cls-3" d="m347.46,265.28c14.14.26,22.1.51,24.93.77,2.31.26,3.08.51,3.08,3.34,0,4.63-2.83,11.82-5.14,13.11-1.54.51-12.34.51-26.99.51l-11.31,48.58c17.22,0,27.5.26,29.3.51,2.06.26,2.57,2.06,2.57,3.6,0,3.86-2.83,11.82-5.91,12.34-4.88.77-15.68,1.03-30.07,1.03-4.88,20.56-9.25,39.07-12.34,51.15-.77,4.11-3.34,4.88-9.25,4.88-3.34,0-4.37-1.03-3.34-3.86,1.8-7.71,6.17-26.73,11.82-52.18h-42.67c-4.37,19.02-8.74,36.76-12.59,51.15-.51,2.83-3.08,4.88-9,4.88-3.34,0-4.11-1.29-3.34-3.86,2.06-8.48,6.43-27.76,12.08-52.43-11.82,0-20.56,0-23.39-.26-4.11-.26-5.91-.51-5.91-3.34,0-3.86,3.34-13.11,4.88-13.37,2.83-.51,12.08-.51,28.27-.51l11.31-48.84c-13.62,0-23.9-.26-26.99-.51-4.11-.26-5.91-.77-5.91-3.6,0-3.6,2.57-12.59,4.88-13.37,3.08-.26,13.37-.26,32.13-.26,3.6-15.42,6.94-30.84,10.54-45.5.51-2.57,4.37-3.34,8.48-3.34,4.37,0,5.4,1.8,4.37,5.65-2.31,9.51-5.91,24.93-10.02,43.18h18.25c9,0,16.96,0,23.9.26l10.28-45.5c.77-2.83,5.14-3.6,9.51-3.6s4.37,2.06,3.6,5.65l-10.02,43.7Zm-17.48,17.48h-42.15c-3.6,15.42-7.45,32.13-11.31,48.58h42.41l11.05-48.58Z"/>
                    <path class="cls-3" d="m463.39,335.71c11.82,4.88,23.9,13.11,23.9,28.79,0,12.85-5.66,24.68-20.56,34.19-8.74,5.4-19.28,7.45-27.76,7.45-10.79,0-17.99-2.83-20.82-4.11-1.54-.77-2.83-1.29-4.37.77-2.83,3.34-9.25,5.14-9.25-2.06,0-9-.77-18.76-2.06-31.62-.77-7.97,7.2-9.51,9.51-1.8.51,1.54,2.57,7.2,3.6,10.02,4.63,10.54,13.62,17.22,29.3,17.22s22.36-6.94,22.36-20.82c0-9.25-5.14-14.91-13.62-19.02-7.45-3.08-17.22-6.68-24.68-9.51-9.77-3.86-24.16-12.34-24.16-30.07,0-10.02,4.63-19.53,14.14-26.73,10.28-7.97,22.1-9.77,30.84-9.77,7.45,0,15.68,2.06,16.96,2.83,1.8.51,2.06.26,2.83-.26,1.8-1.29,3.08-3.34,4.63-4.37,3.08-2.31,7.71-2.06,6.94,2.06-.51,2.57-2.57,15.42-2.57,32.39,0,8.48-7.97,9.77-9.25,2.83-.77-4.11-1.8-8.23-4.37-13.11-3.6-7.2-11.82-11.05-22.11-11.05-15.17,0-19.53,8.74-19.53,17.48,0,11.82,7.71,16.45,17.48,20.31l22.62,7.97Z"/>
                    <path class="cls-3" d="m562.86,372.21c.26,1.03,1.03,1.29,1.8,0,7.45-17.74,26.47-66.83,30.33-77.88,1.29-2.83,2.57-4.88,4.63-6.94,2.57-2.57,5.66-2.57,6.17-.26,1.29,4.37,2.06,9,5.91,20.31,5.65,16.45,19.79,52.44,24.93,64.52,1.54,3.08,2.31,2.31,3.6-1.03,7.2-18.76,22.11-59.12,24.16-68.63,1.03-5.65-.77-7.45-15.68-10.02-6.68-1.03-6.43-8.74.77-9,4.11-.26,14.91.51,24.93.51,6.17,0,13.11-.51,18.76-.51,8.23,0,7.71,7.97.77,9.25-11.05,2.57-12.08,4.37-14.65,9.25-6.43,13.62-28.02,69.91-37.01,93.05-2.57,5.91-5.66,12.08-9.25,12.08-3.08,0-4.88-4.63-4.88-4.88-5.91-15.68-24.68-64-29.56-76.08-1.54-2.83-2.31-2.31-3.6.26-6.17,14.39-28.53,69.66-31.1,73.25-1.8,3.34-3.6,7.45-7.2,7.45-2.57,0-4.11-3.86-5.91-10.28-3.6-11.05-21.85-66.06-30.33-88.42-4.63-12.08-6.17-13.37-17.22-15.42-7.97-1.29-7.45-9.25.77-9.25,7.2,0,15.42.26,22.62.26s20.31-.77,24.67-.77c8.23,0,8.48,7.2.51,9.25-12.34,3.08-13.11,4.88-11.57,9.25,4.63,18.25,16.96,53.98,22.62,70.68Z"/>
                    <path class="cls-3" d="m812.7,270.17c0,35.98-39.33,70.94-77.88,109.75-1.29,1.03-1.29,2.31,0,2.57,2.57.51,38.04,2.06,62.2,2.06,9,0,13.62-2.31,21.59-21.85,3.08-8.23,9.25-7.2,9.25.26s-3.34,22.1-6.94,32.13c-2.57,7.2-5.14,7.97-17.22,7.97s-78.65-.77-81.48-.77c-3.08,0-12.34.26-13.88.26-4.37,0-5.91-5.65-2.83-8.48,3.34-3.34,7.97-7.71,9.51-9.25,42.41-42.41,73.25-74.54,73.25-109.5,0-23.13-11.05-35.73-32.13-35.73-15.17,0-24.93,6.17-37.01,20.82-7.2,8.74-13.62,3.34-8.22-5.4,11.82-19.02,29.56-34.7,55.26-34.7,20.05,0,46.52,13.37,46.52,49.86Z"/>
                    <path class="cls-3" d="m857.68,391.74c-2.31-3.08-2.83-5.65-2.83-8.74s1.54-8.23,4.88-12.34c2.57-3.08,5.4-2.31,6.94,1.29,3.34,9,17.48,21.33,38.3,21.33,23.9,0,38.3-16.19,38.3-39.07,0-21.33-9.77-35.98-45.75-44.98-12.34-3.08-22.36-4.11-28.02-3.86-4.37.26-5.91-1.54-4.37-6.68,4.63-12.34,13.11-47.29,17.22-69.91,1.03-5.14,4.11-6.68,7.45-4.88,1.29.77,4.11,1.03,5.91,1.03,9,0,33.93,0,43.95-.51,6.94-.26,10.54-1.03,15.68-6.43,5.4-5.14,10.28-1.29,6.94,5.14-9.77,18.76-17.74,20.56-20.31,21.08-10.54,1.54-36.24,1.54-49.09,1.03-1.03,0-2.31,1.03-2.57,2.06-2.31,10.02-6.94,31.1-9.25,39.33-.26,1.03.51,1.03,1.54,1.54,10.79,1.54,19.79,3.34,28.79,5.14,36.24,7.97,53.72,24.68,53.72,48.58,0,20.56-8.48,36.76-28.79,50.89-17.99,12.34-34.7,13.37-42.41,13.37-22.11,0-32.39-9-36.24-14.39Z"/>
                </g>
            </g>
        </g>
    </g>
</svg>