<?xml version="1.0" encoding="UTF-8"?>
<svg id="_レイヤー_2" data-name="レイヤー 2"
  xmlns="http://www.w3.org/2000/svg"
  xmlns:xlink="http://www.w3.org/1999/xlink" viewBox="0 0 600 600">
  <defs>
    <style>
      .cls-1, .cls-2 {
        fill: none;
      }

      .cls-3 {
        fill: #c1272d;
      }

      .cls-4 {
        fill: #c69c6d;
      }

      .cls-2 {
        clip-path: url(#clippath);
      }
    </style>
    <clipPath id="clippath">
      <circle class="cls-1" cx="300" cy="300" r="300"/>
    </clipPath>
  </defs>
  <g id="_レイヤー_1-2" data-name="レイヤー 1">
    <g class="cls-2">
      <path class="cls-4" d="m299.73-.46C134.04-.46-.27,133.85-.27,299.54s134.31,300,300,300,300-134.31,300-300S465.41-.46,299.73-.46Zm0,550c-138.07,0-250-111.93-250-250S161.65,49.54,299.73,49.54s250,111.93,250,250-111.93,250-250,250Z"/>
      <g>
        <path class="cls-3" d="m132.02,112.29l-1.77,1.84c-3.16,3.28-6.36,2.2-8.92-.26l-8.24-7.95-.45.47c7.87,8.63,9.16,15.5,3.77,22.53l-7.13-6.87-3.14.3,8.39,8.09-8.96,9.29-6.48-6.25c-.4,1.14-.91,2.32-1.56,3.49l-11.16-10.76c2.13-3.5,2.06-7.53,1.03-9.71l-5.35,5.54-10.12-9.75,2.95-3.06-2.41-2.33,8.57-8.89,2.41,2.33,1.98-2.05,9.47,9.13c1.05,1.36,1.96,2.94,2.84,4.69l2.89-.55-16.63-16.04,17.6-18.25,20.27,19.54-2.01,2.09,2.2,2.12c.43.42,1.04.58,1.38.22l.52-.54c.66-.68,1.03-1.65.8-2.42l9.65,9.3c.06,1.52-1,3.27-2.39,4.71Zm-29.62-18.42l-1.81,1.87,3.06,2.95,1.81-1.87-3.06-2.95Zm1.97,21.08l3.06,2.95c.61-1.28.06-2.51-1.67-4.39l-1.39,1.44Z"/>
        <path class="cls-3" d="m166.05,82.94l-22.26,14.56-7.25-11.09,19.79-12.95c.88-.57.91-1.07.5-1.7l-.17-.25c-.41-.63-.96-.74-1.76-.22l-15.44,10.1c-3.18,2.08-5.36,1.3-7.39-1.8l-10.59-16.19,32.3-21.13,6.68,10.21-20,13.08.68,1.05c.27.42.68.39,1.14.09l9.21-6.02c8.91-5.83,13.87-3.82,17.98,2.46l1.29,1.97c4.65,7.11,3.67,12.36-4.7,17.83Z"/>
        <path class="cls-3" d="m216.54,62.42l-5.45,2.25-.61-1.48-15.07,6.22-5.67-13.73,17.47-7.21,1.53,3.7c.55-.23.67-.6.44-1.16l-8.05-19.5-4.85,2,.32.79,4.07-1.68,2.92,7.07-4.07,1.68.34.83,4.07-1.68,2.94,7.12-17.47,7.21-2.94-7.12,4.3-1.77-.34-.83-4.3,1.77-2.92-7.07,4.3-1.77-.32-.79-5.08,2.1,5.09,12.34c3.85,9.34,3.36,18.63-4.58,24.82l-6.22-15.07c.95-.99.93-2.6-.69-6.53l-8.95-21.68,40.9-16.88,13.9,33.69c2.37,5.73,1.04,9.85-5.02,12.35Zm-14.45-4.75l-2.31.95.8,1.94,2.31-.95-.8-1.94Z"/>
        <path class="cls-3" d="m259.49,46.88l.97,4.75-13.03,2.65-.97-4.75-20.77,4.22-2.35-11.56,3.28-.67-2.35-11.56-4.17.85c1.41-5.13,2.66-14.27,2.67-19.01l14.26-2.9c.04.71.04,1.47,0,2.29l25.77-5.24,2.39,11.76-11.17,2.27.53,2.6,10.29-2.09,2.1,10.34-10.29,2.09.49,2.4,11.81-2.4,2.35,11.56-11.81,2.4Zm-18.5-24.25l-5.24,1.07c-.2,1.01-.38,1.91-.55,2.82l6.32-1.29-.53-2.6Zm2.63,12.94l-4.95,1.01.49,2.4,4.95-1.01-.49-2.4Z"/>
        <path class="cls-3" d="m301.49,35.93l-10.45.17-3.26-19.1-.24-14.55,16.4-.27.24,14.55-2.69,19.19Zm-12.23,13.45l-.2-12.4,14.4-.23.2,12.4-14.4.23Z"/>
        <path class="cls-3" d="m360.76,52.31l-25.7-5.59,2.69-12.36,22.72,4.95c.73.16,1.04-.08,1.18-.72l.03-.15c.15-.68-.14-1-.78-1.14l-9.72-2.12c-9.87-2.15-12.9-7.05-11.23-14.73l.31-1.42c1.94-8.89,7.81-11.2,16.56-9.29l23.11,5.03-2.75,12.65-20.57-4.48c-.78-.17-1.21.15-1.33.68l-.04.2c-.13.59,0,1.13.89,1.32l10.85,2.36c8.11,1.77,11.4,7.09,10.13,12.95l-.55,2.54c-1.42,6.5-6.26,11.38-15.79,9.31Z"/>
        <path class="cls-3" d="m401.84,66.3l-9.83-4.08c-11.27-4.68-14.02-10.69-9.19-22.33l9.1-21.93,12.84,5.33-8.89,21.42c-1.15,2.77-.86,4.03,1.37,5.17l10.52-25.35,10.3,4.27-10.52,25.35c2.23.76,3.34.3,4.58-2.7l8.89-21.42,12.74,5.29-9.1,21.93c-4.54,10.94-11.59,13.7-22.81,9.05Z"/>
        <path class="cls-3" d="m449.58,75.69l-8.66-5.57-1.03,1.6,20.61,13.26-7.01,10.89-33.52-21.56,13.53-21.03,19.81,12.74c1.13.73,1.85.54,2.29-.13l.11-.17c.46-.71.13-1.4-.88-2.05l-19.81-12.74,6.98-10.85,21.57,13.88c9.17,5.9,10.17,12.37,5.63,19.44l-.49.76c-3.33,5.17-9.04,8.04-19.13,1.55Z"/>
        <path class="cls-3" d="m456.09,98.4l9.52-11.52,11.37,9.39-9.52,11.52-11.37-9.39Z"/>
        <path class="cls-3" d="m487.97,128.3l-18.39-19.21,9.57-9.16,16.35,17.08c.73.76,1.22.7,1.76.18l.22-.21c.54-.52.55-1.08-.1-1.77l-12.76-13.33c-2.63-2.75-2.26-5.04.41-7.59l13.98-13.38,26.69,27.88-8.81,8.44-16.53-17.26-.9.86c-.36.35-.26.74.12,1.13l7.61,7.95c7.36,7.69,6.29,12.94.88,18.13l-1.7,1.62c-6.14,5.88-11.48,5.87-18.39-1.36Z"/>
      </g>
      <g>
        <path class="cls-3" d="m467.43,486.78l1.77-1.84c3.16-3.28,6.36-2.2,8.92.26l8.24,7.95.45-.47c-7.87-8.63-9.16-15.5-3.77-22.53l7.13,6.87,3.14-.3-8.39-8.09,8.96-9.29,6.48,6.25c.4-1.14.91-2.32,1.56-3.49l11.16,10.76c-2.13,3.5-2.06,7.54-1.03,9.71l5.35-5.54,10.12,9.75-2.95,3.06,2.41,2.33-8.57,8.89-2.41-2.33-1.98,2.05-9.47-9.13c-1.05-1.36-1.96-2.94-2.84-4.69l-2.89.55,16.63,16.04-17.6,18.25-20.27-19.54,2.01-2.09-2.2-2.12c-.43-.42-1.04-.58-1.38-.22l-.52.54c-.66.68-1.03,1.65-.8,2.42l-9.65-9.3c-.06-1.52,1-3.27,2.39-4.71Zm27.64-2.66l-3.06-2.95c-.61,1.28-.06,2.51,1.67,4.39l1.39-1.44Zm1.97,21.08l1.81-1.87-3.06-2.95-1.81,1.87,3.06,2.95Z"/>
        <path class="cls-3" d="m433.4,516.12l22.26-14.56,7.25,11.09-19.79,12.95c-.88.57-.91,1.07-.5,1.7l.17.25c.41.63.96.74,1.76.22l15.44-10.1c3.18-2.08,5.36-1.3,7.39,1.8l10.59,16.19-32.3,21.13-6.68-10.21,20-13.08-.68-1.05c-.27-.42-.68-.39-1.14-.09l-9.21,6.02c-8.91,5.83-13.87,3.82-17.98-2.46l-1.29-1.97c-4.65-7.11-3.67-12.36,4.7-17.83Z"/>
        <path class="cls-3" d="m382.91,536.65l5.45-2.25.61,1.48,15.07-6.22,5.67,13.73-17.47,7.21-1.53-3.7c-.55.23-.67.6-.44,1.16l8.05,19.5,4.85-2-.32-.79-4.07,1.68-2.92-7.07,4.07-1.68-.34-.83-4.07,1.68-2.94-7.12,17.47-7.21,2.94,7.12-4.3,1.77.34.83,4.3-1.77,2.92,7.07-4.3,1.77.32.79,5.08-2.1-5.09-12.34c-3.85-9.34-3.36-18.63,4.58-24.82l6.22,15.07c-.95.99-.93,2.6.69,6.53l8.95,21.68-40.9,16.88-13.9-33.69c-2.37-5.73-1.04-9.85,5.02-12.35Zm14.45,4.75l2.31-.95-.8-1.94-2.31.95.8,1.94Z"/>
        <path class="cls-3" d="m339.97,552.18l-.97-4.75,13.03-2.65.97,4.75,20.77-4.22,2.35,11.56-3.28.67,2.35,11.56,4.17-.85c-1.41,5.13-2.66,14.27-2.67,19.01l-14.26,2.9c-.04-.71-.04-1.47,0-2.29l-25.77,5.24-2.39-11.76,11.17-2.27-.53-2.6-10.29,2.09-2.1-10.34,10.29-2.09-.49-2.4-11.81,2.4-2.35-11.56,11.81-2.4Zm15.87,11.31l4.95-1.01-.49-2.4-4.95,1.01.49,2.4Zm2.63,12.94l5.24-1.07c.2-1.01.38-1.91.55-2.82l-6.32,1.29.53,2.6Z"/>
        <path class="cls-3" d="m297.96,563.14l10.45-.17,3.26,19.1.24,14.55-16.4.27-.24-14.55,2.69-19.19Zm12.23-13.45l.2,12.4-14.4.23-.2-12.4,14.4-.23Z"/>
        <path class="cls-3" d="m238.69,546.76l25.7,5.59-2.69,12.36-22.72-4.95c-.73-.16-1.04.08-1.18.72l-.03.15c-.15.68.14,1,.78,1.14l9.72,2.12c9.87,2.15,12.9,7.05,11.23,14.73l-.31,1.42c-1.94,8.89-7.81,11.2-16.56,9.29l-23.11-5.03,2.75-12.65,20.57,4.48c.78.17,1.21-.15,1.33-.68l.04-.2c.13-.59,0-1.13-.89-1.32l-10.85-2.36c-8.11-1.77-11.4-7.09-10.13-12.95l.55-2.54c1.42-6.5,6.26-11.38,15.79-9.3Z"/>
        <path class="cls-3" d="m197.62,532.77l9.83,4.08c11.27,4.68,14.02,10.69,9.19,22.33l-9.1,21.93-12.84-5.33,8.89-21.42c1.15-2.77.86-4.03-1.37-5.17l-10.52,25.35-10.3-4.27,10.52-25.35c-2.23-.76-3.34-.3-4.58,2.7l-8.89,21.42-12.74-5.29,9.1-21.93c4.54-10.94,11.59-13.7,22.81-9.05Z"/>
        <path class="cls-3" d="m149.87,523.37l8.66,5.57,1.03-1.6-20.61-13.26,7.01-10.89,33.52,21.56-13.53,21.03-19.81-12.74c-1.13-.73-1.85-.54-2.29.13l-.11.17c-.46.71-.13,1.4.88,2.05l19.81,12.74-6.98,10.85-21.57-13.88c-9.17-5.9-10.17-12.37-5.63-19.44l.49-.76c3.33-5.17,9.04-8.04,19.13-1.55Z"/>
        <path class="cls-3" d="m143.36,500.67l-9.52,11.52-11.37-9.39,9.52-11.52,11.37,9.39Z"/>
        <path class="cls-3" d="m111.48,470.77l18.39,19.21-9.57,9.16-16.35-17.08c-.73-.76-1.22-.7-1.76-.18l-.22.21c-.54.52-.55,1.08.1,1.77l12.76,13.33c2.63,2.75,2.26,5.04-.41,7.59l-13.98,13.38-26.69-27.88,8.81-8.44,16.53,17.26.9-.86c.36-.35.26-.74-.12-1.13l-7.61-7.95c-7.36-7.69-6.29-12.94-.88-18.12l1.7-1.62c6.14-5.88,11.48-5.87,18.39,1.36Z"/>
      </g>
    </g>
  </g>
</svg>