<?xml version="1.0" encoding="UTF-8"?>
<svg id="_レイヤー_2" xmlns="http://www.w3.org/2000/svg"
  xmlns:xlink="http://www.w3.org/1999/xlink" viewBox="0 0 600 600">
  <defs>
    <style>
      .cls-1 {
        fill: none;
      }

      .cls-2 {
        clip-path: url(#clippath);
      }

      .cls-3,
      .cls-4 {
        fill: #f9ec78;
      }

      .cls-5,
      .cls-6 {
        fill: #009245;
      }

      .cls-7 {
        fill: #682407;
      }

      .cls-8,
      .cls-9 {
        fill: #0071bc;
      }

      .cls-10 {
        fill: #f15a24;
      }

      .cls-11,
      .cls-12 {
        fill: #fff;
      }

      .cls-13 {
        fill: #ffefca;
      }

      .cls-14 {
        fill: #fff3d9;
      }

      .cls-15 {
        fill: #ff0;
      }

      .cls-16,
      .cls-17 {
        fill: #fbb03b;
      }

      .cls-18 {
        fill: #fcf9d0;
      }

      .cls-19 {
        fill: #ff8891;
      }

      .cls-20,
      .cls-21 {
        fill: #9e005d;
      }

      .cls-22,
      .cls-23 {
        fill: #c1272d;
      }

      .cls-24 {
        fill: #c69c6d;
      }

      .cls-25 {
        fill: #e5132c;
      }

      .cls-26 {
        clip-path: url(#clippath-1);
      }

      .cls-27 {
        clip-path: url(#clippath-4);
      }

      .cls-28 {
        clip-path: url(#clippath-3);
      }

      .cls-29 {
        clip-path: url(#clippath-2);
      }

      .cls-30 {
        clip-path: url(#clippath-6);
      }

      .cls-31 {
        clip-path: url(#clippath-5);
      }

      .cls-23 {
        font-family: VDL-LogoJrBlack-Black-83pv-RKSJ-H, VDL-LogoJrBlack;
        font-size: 50px;
        font-weight: 800;
      }

      .cls-4,
      .cls-12 {
        opacity: .5;
      }

      .cls-21,
      .cls-32,
      .cls-17,
      .cls-6,
      .cls-9 {
        opacity: .75;
      }

      .cls-32 {
        fill: #ed1c24;
      }
    </style>
    <clipPath id="clippath">
      <circle class="cls-1" cx="300" cy="300" r="300" />
    </clipPath>
    <clipPath id="clippath-1">
      <path class="cls-1"
        d="m299.73,466.76c-74.86,0-135.55,14.69-135.55,32.81v51.68c0,18.12,60.69,32.81,135.55,32.81s135.55-14.69,135.55-32.81v-51.68c0-18.12-60.69-32.81-135.55-32.81Z" />
    </clipPath>
    <clipPath id="clippath-2">
      <rect class="cls-1" x="187.17" y="451.6" width="9.49" height="35.9" rx="1.43" ry="1.43" />
    </clipPath>
    <clipPath id="clippath-3">
      <rect class="cls-1" x="297.92" y="435.87" width="9.49" height="35.9" rx="1.43" ry="1.43" />
    </clipPath>
    <clipPath id="clippath-4">
      <rect class="cls-1" x="400.7" y="447.78" width="9.49" height="35.9" rx="1.43" ry="1.43" />
    </clipPath>
    <clipPath id="clippath-5">
      <rect class="cls-1" x="359.54" y="486.72" width="9.49" height="35.9" rx="1.43" ry="1.43" />
    </clipPath>
    <clipPath id="clippath-6">
      <rect class="cls-1" x="235.78" y="487.22" width="9.49" height="35.9" rx="1.43" ry="1.43" />
    </clipPath>
  </defs>
  <g id="_レイヤー_1-2">
    <g class="cls-2">
      <g id="_風船">
        <path class="cls-4"
          d="m461.11,217.47c-.35,0-.7-.01-1.05-.03v74.61c0,.56.46,1.03,1.03,1.03h.04c.56,0,1.02-.46,1.02-1.03v-74.61c-.34.02-.69.03-1.04.03Z" />
        <path class="cls-32"
          d="m461.11,75c-31.72,0-57.44,24.13-57.44,51.9,0,36.56,37.59,55.21,55.42,79.73-4.51.51-7.91,2.72-7.91,5.36,0,3.02,4.44,5.48,9.93,5.48s9.92-2.45,9.92-5.48c0-2.64-3.39-4.85-7.9-5.36,17.83-24.52,55.42-43.17,55.42-79.73,0-27.77-25.72-51.9-57.44-51.9Z" />
        <rect class="cls-3" x="453.67" y="204.04" width="14.89" height="4.47" rx="2.23" ry="2.23" />
        <ellipse class="cls-12" cx="439.29" cy="99.13" rx="16.67" ry="9.42"
          transform="translate(20.99 265.94) rotate(-34.46)" />
        <path class="cls-4"
          d="m539.72,336.92c-.35,0-.7-.01-1.05-.03v74.61c0,.56.46,1.03,1.03,1.03h.04c.56,0,1.02-.46,1.02-1.03v-74.61c-.34.02-.69.03-1.04.03Z" />
        <path class="cls-17"
          d="m539.72,194.45c-31.72,0-57.44,24.13-57.44,51.9,0,36.56,37.59,55.21,55.42,79.73-4.51.51-7.91,2.72-7.91,5.36,0,3.02,4.44,5.48,9.93,5.48s9.92-2.45,9.92-5.48c0-2.64-3.39-4.85-7.9-5.36,17.83-24.52,55.42-43.17,55.42-79.73,0-27.77-25.72-51.9-57.44-51.9Z" />
        <rect class="cls-3" x="532.28" y="323.5" width="14.89" height="4.47" rx="2.23" ry="2.23" />
        <ellipse class="cls-12" cx="517.9" cy="218.58" rx="16.67" ry="9.42"
          transform="translate(-32.81 331.37) rotate(-34.46)" />
        <path class="cls-4"
          d="m193.88,249.95c-.35,0-.7-.01-1.05-.03v74.61c0,.56.46,1.03,1.03,1.03h.04c.56,0,1.02-.46,1.02-1.03v-74.61c-.34.02-.69.03-1.04.03Z" />
        <path class="cls-21"
          d="m193.88,107.48c-31.72,0-57.44,24.13-57.44,51.9,0,36.56,37.59,55.21,55.42,79.73-4.51.51-7.91,2.72-7.91,5.36,0,3.02,4.44,5.48,9.93,5.48s9.92-2.45,9.92-5.48c0-2.64-3.39-4.85-7.9-5.36,17.83-24.52,55.42-43.17,55.42-79.73,0-27.77-25.72-51.9-57.44-51.9Z" />
        <rect class="cls-3" x="186.43" y="236.52" width="14.89" height="4.47" rx="2.23" ry="2.23" />
        <ellipse class="cls-12" cx="172.05" cy="131.61" rx="16.67" ry="9.42"
          transform="translate(-44.28 120.44) rotate(-34.46)" />
        <path class="cls-4"
          d="m341.02,153.74c-.35,0-.7-.01-1.05-.03v74.61c0,.56.46,1.03,1.03,1.03h.04c.56,0,1.02-.46,1.02-1.03v-74.61c-.34.02-.69.03-1.04.03Z" />
        <path class="cls-6"
          d="m341.02,11.27c-31.72,0-57.44,24.13-57.44,51.9,0,36.56,37.59,55.21,55.42,79.73-4.51.51-7.91,2.72-7.91,5.36,0,3.02,4.44,5.48,9.93,5.48s9.92-2.45,9.92-5.48c0-2.64-3.39-4.85-7.9-5.36,17.83-24.52,55.42-43.17,55.42-79.73,0-27.77-25.72-51.9-57.44-51.9Z" />
        <rect class="cls-3" x="333.58" y="140.31" width="14.89" height="4.47" rx="2.23" ry="2.23" />
        <ellipse class="cls-12" cx="319.2" cy="35.4" rx="16.67" ry="9.42"
          transform="translate(35.97 186.81) rotate(-34.46)" />
        <path class="cls-4"
          d="m87.51,351.15c-.35,0-.7-.01-1.05-.03v74.61c0,.56.46,1.03,1.03,1.03h.04c.56,0,1.02-.46,1.02-1.03v-74.61c-.34.02-.69.03-1.04.03Z" />
        <path class="cls-9"
          d="m87.51,208.67c-31.72,0-57.44,24.13-57.44,51.9,0,36.56,37.59,55.21,55.42,79.73-4.51.51-7.91,2.72-7.91,5.36,0,3.02,4.44,5.48,9.93,5.48s9.92-2.45,9.92-5.48c0-2.64-3.39-4.85-7.9-5.36,17.83-24.52,55.42-43.17,55.42-79.73,0-27.77-25.72-51.9-57.44-51.9Z" />
        <rect class="cls-3" x="80.07" y="337.72" width="14.89" height="4.47" rx="2.23" ry="2.23" />
        <ellipse class="cls-12" cx="65.69" cy="232.81" rx="16.67" ry="9.42"
          transform="translate(-120.19 78.01) rotate(-34.46)" />
      </g>
      <path class="cls-24"
        d="m299.73-.46C134.04-.46-.27,133.85-.27,299.54s134.31,300,300,300,300-134.31,300-300S465.41-.46,299.73-.46Zm0,550c-138.07,0-250-111.93-250-250S161.65,49.54,299.73,49.54s250,111.93,250,250-111.93,250-250,250Z" />
      <g id="_ケーキ">
        <path class="cls-14"
          d="m164.18,499.57v73.07c0,18.12,60.69,32.81,135.55,32.81s135.55-14.69,135.55-32.81v-73.07H164.18Z" />
        <path class="cls-25"
          d="m299.73,568.38c-74.86,0-135.55-14.69-135.55-32.81h0v13.45c0,18.12,60.69,32.81,135.55,32.81s135.55-14.69,135.55-32.81v-13.45c0,18.12-60.69,32.81-135.55,32.81Z" />
        <ellipse class="cls-19" cx="299.73" cy="499.57" rx="135.55" ry="32.81" />
        <g class="cls-26">
          <path class="cls-19"
            d="m162.21,499.38c-1.14,15.9.67,20.98,3.15,21.78,3.77,1.23,8.56-7.59,13.2-6.08,4.66,1.51,3.25,11.52,7.89,12.98,4.35,1.37,7.81-6.75,12.95-6,7.32,1.06,8.16,18.64,13.81,18.97,5.16.31,8.37-14.15,13.02-13.64,4.68.52,4.99,15.55,9.69,16.07,4.62.51,7.78-13.57,13.04-13.29,5.41.3,6.78,15.46,12.1,15.72,5.22.26,7.89-14.13,13.41-13.97,5.28.15,6.21,13.42,12.55,14.38,7.09,1.08,11.74-14.65,19.06-13.9,7.78.8,9.72,19.33,15.41,19.17,5.81-.16,7.17-19.57,14.27-20.35,6.72-.73,11.5,16.04,17.77,15.08,6.08-.93,6.26-17.39,12.08-18.07,5.49-.63,9.4,13.52,14.68,12.79,5.2-.72,4.1-14.8,10.98-17.3,8.2-2.98,18.61,13.81,24.71,10.81,5.56-2.74.91-18.72,6.02-20.82,4.86-2,11.54,11.43,18.72,10.28,3.62-.58,8.49-5.06,12.17-25.14" />
        </g>
        <path class="cls-25"
          d="m250.24,462.78c0,6.62-5.37,11.98-11.98,11.98s-11.98-5.37-11.98-11.98,5.37-19.22,11.98-19.22,11.98,12.6,11.98,19.22Z" />
        <path class="cls-13" d="m233.37,454.64c-.12.51-.5.85-.84.77s-.52-.56-.4-1.06.63-1.4.97-1.32.39,1.11.27,1.62Z" />
        <path class="cls-13" d="m240.11,457.24c0,.52-.28.94-.63.94s-.63-.42-.63-.94.28-1.51.63-1.51.63.99.63,1.51Z" />
        <path class="cls-13" d="m244.8,454.69c.07.51-.15.97-.49,1.02s-.69-.33-.76-.84.06-1.53.41-1.58.77.89.84,1.4Z" />
        <path class="cls-13" d="m243.9,463.33c.19.49.07.98-.26,1.1s-.74-.17-.93-.65-.27-1.51.05-1.64.94.7,1.13,1.18Z" />
        <path class="cls-13" d="m237.06,462.35c0,.52-.28.94-.63.94s-.63-.42-.63-.94.28-1.51.63-1.51.63.99.63,1.51Z" />
        <path class="cls-13"
          d="m231.17,464.41c-.07.51-.41.89-.76.84s-.57-.51-.5-1.02.49-1.45.84-1.4.49,1.07.42,1.58Z" />
        <path class="cls-13" d="m235.79,469.42c0,.52-.28.94-.63.94s-.63-.42-.63-.94.28-1.51.63-1.51.63.99.63,1.51Z" />
        <path class="cls-13" d="m241.65,470.6c.04.52-.22.96-.57.98s-.66-.38-.7-.89.18-1.53.53-1.55.7.94.74,1.46Z" />
        <path class="cls-13" d="m248.3,466.73c.03.52-.22.96-.57.98s-.66-.38-.69-.9.18-1.52.53-1.55.7.95.73,1.46Z" />
        <path class="cls-25"
          d="m366.15,462.78c0,6.62-5.37,11.98-11.98,11.98s-11.98-5.37-11.98-11.98,5.37-19.22,11.98-19.22,11.98,12.6,11.98,19.22Z" />
        <path class="cls-13" d="m349.28,454.64c-.12.51-.5.85-.84.77s-.52-.56-.4-1.06.63-1.4.97-1.32.39,1.11.27,1.62Z" />
        <path class="cls-13" d="m356.02,457.24c0,.52-.28.94-.63.94s-.63-.42-.63-.94.28-1.51.63-1.51.63.99.63,1.51Z" />
        <path class="cls-13" d="m360.71,454.69c.07.51-.15.97-.49,1.02s-.69-.33-.76-.84.06-1.53.41-1.58.77.89.84,1.4Z" />
        <path class="cls-13"
          d="m359.81,463.33c.19.49.07.98-.26,1.1s-.74-.17-.93-.65-.27-1.51.05-1.64.94.7,1.13,1.18Z" />
        <path class="cls-13" d="m352.97,462.35c0,.52-.28.94-.63.94s-.63-.42-.63-.94.28-1.51.63-1.51.63.99.63,1.51Z" />
        <path class="cls-13"
          d="m347.08,464.41c-.07.51-.41.89-.76.84s-.57-.51-.5-1.02.49-1.45.84-1.4.49,1.07.42,1.58Z" />
        <path class="cls-13" d="m351.7,469.42c0,.52-.28.94-.63.94s-.63-.42-.63-.94.28-1.51.63-1.51.63.99.63,1.51Z" />
        <path class="cls-13" d="m357.56,470.6c.04.52-.22.96-.57.98s-.66-.38-.7-.89.18-1.53.53-1.55.7.94.74,1.46Z" />
        <path class="cls-13" d="m364.21,466.73c.03.52-.22.96-.57.98s-.66-.38-.69-.9.18-1.52.53-1.55.7.95.73,1.46Z" />
        <path class="cls-10"
          d="m198.5,444.66c0,3.64-2.95,6.58-6.58,6.58s-6.58-2.95-6.58-6.58,6.58-11.89,6.58-11.89c0,0,6.58,8.25,6.58,11.89Z" />
        <path class="cls-15"
          d="m196.35,447.03c0,2.33-1.98,4.22-4.43,4.22s-4.43-1.89-4.43-4.22,4.43-7.62,4.43-7.62c0,0,4.43,5.29,4.43,7.62Z" />
        <rect class="cls-16" x="187.17" y="451.6" width="9.49" height="35.9" rx="1.43" ry="1.43" />
        <g class="cls-29">
          <rect class="cls-11" x="182.86" y="477.17" width="24.58" height="4.49"
            transform="translate(-213.56 161.8) rotate(-30)" />
          <rect class="cls-11" x="181.37" y="467.3" width="24.58" height="4.49"
            transform="translate(-208.83 159.74) rotate(-30)" />
          <rect class="cls-11" x="179.63" y="457.44" width="24.58" height="4.49"
            transform="translate(-204.13 157.55) rotate(-30)" />
        </g>
        <path class="cls-19"
          d="m299.73,562.86c-74.86,0-135.55-14.69-135.55-32.81h0v13.45c0,18.12,60.69,32.81,135.55,32.81s135.55-14.69,135.55-32.81v-13.45c0,18.12-60.69,32.81-135.55,32.81Z" />
        <rect class="cls-22" x="297.92" y="436.79" width="9.49" height="35.9" rx="1.43" ry="1.43" />
        <path class="cls-10"
          d="m309.25,429.85c0,3.64-2.95,6.58-6.58,6.58s-6.58-2.95-6.58-6.58,6.58-11.89,6.58-11.89c0,0,6.58,8.25,6.58,11.89Z" />
        <path class="cls-15"
          d="m307.09,432.21c0,2.33-1.98,4.22-4.43,4.22s-4.43-1.89-4.43-4.22,4.43-7.62,4.43-7.62c0,0,4.43,5.29,4.43,7.62Z" />
        <g class="cls-28">
          <rect class="cls-11" x="293.61" y="461.44" width="24.58" height="4.49"
            transform="translate(-190.86 215.07) rotate(-30)" />
          <rect class="cls-11" x="292.12" y="451.58" width="24.58" height="4.49"
            transform="translate(-186.13 213) rotate(-30)" />
          <rect class="cls-11" x="290.38" y="441.71" width="24.58" height="4.49"
            transform="translate(-181.43 210.81) rotate(-30)" />
        </g>
        <rect class="cls-8" x="400.7" y="449.26" width="9.49" height="35.9" rx="1.43" ry="1.43" />
        <path class="cls-10"
          d="m412.02,442.32c0,3.64-2.95,6.58-6.58,6.58s-6.58-2.95-6.58-6.58,6.58-11.89,6.58-11.89c0,0,6.58,8.25,6.58,11.89Z" />
        <path class="cls-15"
          d="m409.87,444.68c0,2.33-1.98,4.22-4.43,4.22s-4.43-1.89-4.43-4.22,4.43-7.62,4.43-7.62c0,0,4.43,5.29,4.43,7.62Z" />
        <g class="cls-27">
          <rect class="cls-11" x="396.38" y="473.34" width="24.58" height="4.49"
            transform="translate(-183.04 268.05) rotate(-30)" />
          <rect class="cls-11" x="394.9" y="463.48" width="24.58" height="4.49"
            transform="translate(-178.31 265.99) rotate(-30)" />
          <rect class="cls-11" x="393.15" y="453.62" width="24.58" height="4.49"
            transform="translate(-173.61 263.79) rotate(-30)" />
        </g>
        <rect class="cls-20" x="359.54" y="487.86" width="9.49" height="35.9" rx="1.43" ry="1.43" />
        <path class="cls-10"
          d="m370.87,480.93c0,3.64-2.95,6.58-6.58,6.58s-6.58-2.95-6.58-6.58,6.58-11.89,6.58-11.89c0,0,6.58,8.25,6.58,11.89Z" />
        <path class="cls-15"
          d="m368.71,483.29c0,2.33-1.98,4.22-4.43,4.22s-4.43-1.89-4.43-4.22,4.43-7.62,4.43-7.62c0,0,4.43,5.29,4.43,7.62Z" />
        <g class="cls-31">
          <rect class="cls-11" x="355.23" y="512.29" width="24.58" height="4.49"
            transform="translate(-208.03 252.69) rotate(-30)" />
          <rect class="cls-11" x="353.74" y="502.43" width="24.58" height="4.49"
            transform="translate(-203.3 250.63) rotate(-30)" />
          <rect class="cls-11" x="352" y="492.57" width="24.58" height="4.49"
            transform="translate(-198.6 248.43) rotate(-30)" />
        </g>
        <ellipse class="cls-7" cx="299.73" cy="474.33" rx="49.49" ry="29.9" />
        <path class="cls-18"
          d="m280.7,454.11c-.07,0-.1.02-.1.11v1.9c0,.71.01.96.02,1.18.02.37.09.55.92.64.45.04.45.45,0,.45-.25,0-.86-.02-1.46-.02-.55,0-1.19.02-1.4.02-.43,0-.42-.42-.01-.45.71-.1.85-.21.87-.64.01-.27.02-.49.02-1.2v-4.01c0-.7-.01-1.03-.02-1.24-.02-.31-.15-.43-.91-.53-.43-.05-.4-.44,0-.44.2,0,.71.02,1.32.02.72,0,1.29-.02,1.57-.02.43,0,.43.38-.01.44-.66.1-.87.2-.89.51-.02.23-.02.5-.02,1.15v1.33c0,.11.01.15.11.15h4.74c.06,0,.06-.04.06-.1v-1.31c0-.81-.01-.96-.02-1.19-.02-.36-.11-.44-.82-.55-.48-.05-.5-.44-.01-.44.25,0,.78.02,1.43.02.58,0,1.08-.02,1.37-.02.44,0,.45.4-.01.45-.69.09-.82.22-.86.48-.02.23-.04.44-.04,1.21v4.04c0,.78.01,1.03.02,1.25.04.43.11.49.87.61.46.05.44.45-.01.45-.38,0-.71-.02-1.45-.02-.61,0-1.05.04-1.35.04-.4,0-.42-.42,0-.47.72-.12.81-.2.83-.59.03-.31.04-.51.04-1.15v-2c0-.06-.01-.09-.06-.09h-4.75Z" />
        <path class="cls-18"
          d="m292.29,450.86c.11-.27.17-.5.2-.58.02-.12.44-.54.62-.54.12,0,.17.04.2.18.04.25.05.4.17.67.7,1.88,1.9,4.79,2.67,6.54.26.58.45.7.97.78.54.06.46.45.02.45-.28,0-.75-.02-1.23-.02-.39,0-.98.02-1.24.02-.47,0-.49-.38-.05-.45.5-.1.54-.22.44-.5-.17-.5-.61-1.54-.91-2.27-.04-.11-.07-.13-.25-.13h-2.57c-.06,0-.1.05-.13.11-.2.48-.45,1.12-.72,1.89-.25.67-.18.77.7.92.43.06.39.44-.05.44-.36,0-.69-.02-1.23-.02s-1.14.04-1.31.04c-.39,0-.43-.36-.02-.44.67-.13.86-.21,1.24-1.09.53-1.22,1.94-4.73,2.47-6Zm-.81,3.48c-.01.06,0,.07.07.07h2.18c.15,0,.13-.05.11-.11-.33-.75-.69-1.74-1.18-2.96-.23.55-.88,2.29-1.19,3Z" />
        <path class="cls-18"
          d="m300.33,456.36c0,.61.02.87.04,1.04.05.32.16.43.99.53.44.06.43.45-.06.45-.38,0-.69-.02-1.5-.02-.51,0-1.1.02-1.4.02-.4,0-.45-.38.01-.44.76-.12.83-.25.86-.6.02-.38.02-.75.02-1.51v-3.68c0-.69-.01-.88-.04-1.21-.04-.44-.16-.54-.89-.62-.4-.05-.44-.44.05-.44.22,0,.81.02,1.07.02.56,0,1.57-.04,2.17-.04,2.06,0,3.01,1.09,3.01,2.35,0,.74-.21,1.48-1.02,2.13-.71.55-1.59.83-2.7.83-.17,0-.51-.01-.62-.01v1.19Zm.11-1.92c.26.12.81.15,1.16.15,1.25,0,1.95-.58,1.95-2.01,0-1.27-.69-2.17-2.19-2.17-.51,0-.75.05-.91.15-.1.05-.12.17-.12.54v3.15c0,.11.02.16.11.2Z" />
        <path class="cls-18"
          d="m308.16,456.36c0,.61.02.87.04,1.04.05.32.16.43.99.53.44.06.43.45-.06.45-.38,0-.69-.02-1.5-.02-.51,0-1.1.02-1.4.02-.4,0-.45-.38.01-.44.76-.12.83-.25.86-.6.02-.38.02-.75.02-1.51v-3.68c0-.69-.01-.88-.04-1.21-.04-.44-.16-.54-.89-.62-.4-.05-.44-.44.05-.44.22,0,.81.02,1.07.02.56,0,1.57-.04,2.17-.04,2.06,0,3.01,1.09,3.01,2.35,0,.74-.21,1.48-1.02,2.13-.71.55-1.59.83-2.7.83-.17,0-.51-.01-.62-.01v1.19Zm.11-1.92c.26.12.81.15,1.16.15,1.25,0,1.95-.58,1.95-2.01,0-1.27-.69-2.17-2.19-2.17-.51,0-.75.05-.91.15-.1.05-.12.17-.12.54v3.15c0,.11.02.16.11.2Z" />
        <path class="cls-18"
          d="m317.45,454.16c.05.09.11.04.15-.01.45-.8,1.19-2.06,1.61-2.83.16-.31.25-.51.25-.65,0-.15-.12-.27-.65-.36-.44-.06-.4-.44.01-.44.45,0,.83.04,1.2.04.47,0,.88-.04,1.15-.04.49,0,.53.39.02.45-.64.1-.83.32-1.1.72-.58.84-1.51,2.44-2.08,3.49-.11.18-.25.43-.25.61v1.27c0,.45.01.83.02.98.05.37.26.44.99.54.47.06.42.44-.05.44-.53,0-.93-.02-1.51-.02-.45,0-.91.02-1.36.02s-.45-.39-.02-.44c.8-.11.85-.27.87-.64.01-.15.01-.48.01-.86v-1.1c0-.32-.05-.49-.07-.56-.27-.64-1.78-3.34-2.3-4.06-.16-.22-.29-.33-.87-.42-.44-.06-.45-.44.01-.44.5,0,.86.04,1.27.04s.83-.04,1.15-.04c.48,0,.45.37.05.44-.48.1-.5.22-.38.43.56,1.05,1.76,3.2,1.87,3.42Z" />
        <path class="cls-18"
          d="m286.45,462.88c.1-.24.15-.45.18-.52.02-.11.4-.48.56-.48.11,0,.15.03.18.17.03.22.04.36.15.61.63,1.68,1.71,4.3,2.4,5.88.23.52.41.63.87.7.48.05.42.41.02.41-.25,0-.67-.02-1.1-.02-.35,0-.88.02-1.11.02-.42,0-.44-.34-.04-.41.45-.09.48-.2.4-.45-.15-.45-.55-1.39-.81-2.04-.03-.1-.07-.12-.22-.12h-2.31c-.05,0-.09.04-.12.1-.18.43-.41,1-.65,1.69-.22.61-.17.69.63.83.38.05.35.4-.04.4-.32,0-.62-.02-1.1-.02s-1.02.03-1.18.03c-.35,0-.39-.32-.02-.4.61-.12.77-.19,1.11-.98.47-1.1,1.74-4.25,2.22-5.39Zm-.73,3.12c-.01.05,0,.07.07.07h1.96c.13,0,.12-.04.1-.1-.3-.67-.62-1.56-1.06-2.66-.21.5-.79,2.06-1.07,2.7Z" />
        <path class="cls-18"
          d="m292.18,465.82c0-.33-.05-.43-.56-.59-.15-.07-.17-.28.02-.34.35-.14.6-.24.88-.44.14-.08.22-.12.29-.12.1,0,.14.06.17.18.03.15.05.38.05.77.14-.12.61-.48.91-.66.28-.18.59-.29.92-.29.92,0,1.53.67,1.53,1.9v2.53c0,.35.07.4.55.48.34.05.33.4-.03.4s-.65-.02-1.02-.02c-.29,0-.71.02-.92.02-.4,0-.4-.34-.05-.4.58-.11.62-.22.63-.57.01-.22.03-.47.03-1.54v-.74c0-.81-.41-1.34-1.24-1.34-.52,0-.98.36-1.24.67-.06.07-.08.12-.08.29v1.87c0,.43,0,.69.03.88.01.31.05.39.6.48.32.05.3.4-.05.4-.24,0-.61-.02-1-.02-.36,0-.67.02-.96.02-.37,0-.36-.34-.03-.4.5-.1.53-.18.55-.5.03-.24.03-.45.03-1.03v-1.89Z" />
        <path class="cls-18"
          d="m298.62,465.82c0-.33-.05-.43-.56-.59-.15-.07-.17-.28.02-.34.35-.14.6-.24.88-.44.14-.08.22-.12.29-.12.1,0,.14.06.17.18.03.15.05.38.05.77.14-.12.61-.48.91-.66.28-.18.59-.29.92-.29.92,0,1.53.67,1.53,1.9v2.53c0,.35.07.4.55.48.34.05.33.4-.03.4s-.65-.02-1.02-.02c-.29,0-.71.02-.92.02-.4,0-.4-.34-.05-.4.58-.11.62-.22.63-.57.01-.22.03-.47.03-1.54v-.74c0-.81-.41-1.34-1.24-1.34-.52,0-.98.36-1.24.67-.06.07-.08.12-.08.29v1.87c0,.43,0,.69.03.88.01.31.05.39.6.48.32.05.3.4-.05.4-.24,0-.61-.02-1-.02-.36,0-.67.02-.96.02-.37,0-.36-.34-.03-.4.5-.1.53-.18.55-.5.03-.24.03-.45.03-1.03v-1.89Z" />
        <path class="cls-18"
          d="m304.54,469.64c-.37,0-.39-.34-.03-.41.47-.1.54-.19.54-.65v-2.55c0-.23,0-.37-.02-.5-.01-.18-.04-.22-.48-.4-.2-.08-.21-.32.05-.36.3-.04.63-.17.94-.34.1-.05.18-.11.27-.11.11,0,.18.08.15.24-.03.26-.09.46-.09,1.41v2.55c0,.52.04.6.55.7.34.05.34.41-.04.41-.28,0-.54-.02-.94-.02-.31,0-.7.02-.9.02Zm1.51-7.37c0,.35-.22.67-.62.67-.34,0-.58-.26-.58-.62,0-.37.26-.66.62-.66.28,0,.58.23.58.61Z" />
        <path class="cls-18"
          d="m310,468.34c.04.11.08.06.11-.01.42-1.03.87-2.15,1.11-2.75.19-.48.1-.54-.47-.66-.34-.07-.31-.4.04-.4.26,0,.48.02.84.02.29,0,.65-.02.9-.02.33,0,.34.34.05.4-.44.1-.55.22-.69.51-.35.71-.97,2.05-1.47,3.28-.12.31-.32.73-.37.85-.14.19-.2.29-.31.29s-.17-.1-.23-.35c-.11-.37-1.21-3.18-1.5-3.83-.26-.59-.35-.63-.82-.74-.31-.07-.3-.4.08-.4.29,0,.7.02,1.02.02.22,0,.79-.02.97-.02.35-.01.32.33.02.4-.44.12-.53.18-.43.42.36.99.76,1.99,1.16,3Z" />
        <path class="cls-18"
          d="m315.78,469.02c.66,0,1-.26,1.23-.4.34-.21.44.1.17.37-.17.15-.86.76-1.93.76-1.28,0-2.17-1.11-2.17-2.61,0-1.07.48-1.78.95-2.2.4-.34.94-.63,1.54-.63,1.29,0,1.77,1.06,1.78,1.74.07.03.12.07.12.17,0,.2-.22.34-.42.4-.44.12-1,.24-3.1.24.02,1.46.76,2.16,1.83,2.16Zm-1.73-2.68c.07.01.27.02.41.02,1.03,0,1.74-.04,2-.1.04-.02.05-.07.05-.12-.03-.85-.7-1.26-1.31-1.26s-1.1.4-1.22,1.36c0,.07.01.09.07.1Z" />
        <path class="cls-18"
          d="m322.2,464.95c0,.23-.07.45-.15.58-.03.09-.13.21-.24.21-.1,0-.12-.02-.29-.21-.17-.17-.32-.27-.58-.27s-.59.12-.95.53c-.04.07-.06.09-.06.17v2.17c0,.28.01.5.02.66.02.32.12.36.76.48.33.07.29.37-.02.37-.23,0-.62-.02-1.09-.02s-.76.02-1.02.02c-.3,0-.33-.31-.03-.39.46-.12.48-.17.51-.43.03-.19.03-.42.03-.69v-1.8c0-.36,0-.63-.03-.73-.01-.17-.12-.24-.54-.37-.18-.07-.18-.25,0-.33.33-.14.7-.33,1-.51.08-.04.12-.07.19-.07.09,0,.14.09.17.21.03.15.07.56.07.87.91-.9,1.24-1.08,1.6-1.08.28,0,.67.18.67.63Z" />
        <path class="cls-18"
          d="m325.52,466.76c.51.21,1.02.56,1.02,1.23,0,.55-.24,1.06-.88,1.46-.37.23-.83.32-1.19.32-.46,0-.77-.12-.89-.18-.07-.03-.12-.06-.19.03-.12.14-.4.22-.4-.09,0-.38-.03-.8-.09-1.35-.03-.34.31-.41.41-.08.02.07.11.31.15.43.2.45.58.74,1.25.74s.96-.3.96-.89c0-.4-.22-.64-.58-.81-.32-.13-.74-.29-1.06-.41-.42-.17-1.03-.53-1.03-1.29,0-.43.2-.84.6-1.14.44-.34.95-.42,1.32-.42.32,0,.67.09.73.12.08.02.09.01.12-.01.08-.05.13-.14.2-.19.13-.1.33-.09.3.09-.02.11-.11.66-.11,1.39,0,.36-.34.42-.4.12-.03-.18-.08-.35-.19-.56-.15-.31-.51-.47-.95-.47-.65,0-.84.37-.84.75,0,.51.33.7.75.87l.97.34Z" />
        <path class="cls-18"
          d="m330.59,466.3c-.04-1.09-.7-1.4-1.24-1.4-.43,0-.64.15-.75.37-.11.21-.17.52-.26.76-.09.23-.34.3-.48-.03-.08-.15-.11-.33-.11-.5,0-.13.03-.23.15-.33.56-.44,1.53-.86,1.91-.86,1.31,0,1.56,1.08,1.56,1.79s-.03,2.42-.03,2.55c0,.11.01.19.03.22.1.18.42.17.63.17.23-.01.23.29,0,.42-.25.17-.67.27-1.05.26-.35-.01-.4-.32-.42-.87-.79.67-1.38.91-1.88.91-.44,0-1.18-.36-1.18-1.36s1.44-1.57,2.68-1.57c.11,0,.26.01.43.02v-.56Zm0,1.13c0-.07-.03-.07-.08-.08-.18-.03-.41-.06-.87-.04-.76.01-1.27.36-1.27.94,0,.43.23.81.85.81.34,0,.75-.09,1.23-.64.09-.1.13-.15.13-.4v-.59Z" />
        <path class="cls-18"
          d="m336.71,464.95c0,.23-.07.45-.15.58-.03.09-.13.21-.24.21-.1,0-.12-.02-.29-.21-.17-.17-.32-.27-.58-.27s-.59.12-.95.53c-.04.07-.06.09-.06.17v2.17c0,.28.01.5.02.66.02.32.12.36.76.48.33.07.29.37-.02.37-.23,0-.62-.02-1.09-.02s-.76.02-1.02.02c-.3,0-.33-.31-.03-.39.46-.12.48-.17.51-.43.03-.19.03-.42.03-.69v-1.8c0-.36,0-.63-.03-.73-.01-.17-.12-.24-.54-.37-.18-.07-.18-.25,0-.33.33-.14.7-.33,1-.51.08-.04.12-.07.19-.07.09,0,.14.09.17.21.03.15.07.56.07.87.91-.9,1.24-1.08,1.6-1.08.28,0,.67.18.67.63Z" />
        <path class="cls-18"
          d="m337.13,464.92c-.35-.06-.34-.39.01-.4.27-.01.7.02,1.02.02.22,0,.73-.02.94-.02.35,0,.36.34.05.41-.43.1-.48.17-.4.41.42,1.02.93,2.28,1.22,3,.03.06.07.07.09.02.59-1.31,1.07-2.53,1.18-2.85.11-.4.05-.47-.5-.58-.35-.07-.35-.4.01-.41.21,0,.55.02.87.02.24,0,.58-.02.87-.02.37-.01.42.33.02.42-.41.1-.48.21-.67.62-.36.83-1.17,2.52-2.21,5.02-.53,1.31-.69,1.8-.78,2.08-.03.12-.11.21-.3.21-.37,0-.62-.21-.62-.4,0-.17.13-.38.33-.71.28-.43.41-.66.67-1.1.21-.4.38-.76.57-1.12.02-.04.03-.1.01-.18-.53-1.28-1.21-2.84-1.61-3.7-.25-.5-.31-.64-.79-.74Z" />
        <path class="cls-18"
          d="m259.12,468.76c-.14-.18-.17-.34-.17-.52s.09-.49.29-.74c.15-.18.32-.14.42.08.2.54,1.04,1.27,2.29,1.27,1.43,0,2.29-.97,2.29-2.33,0-1.27-.58-2.15-2.73-2.69-.74-.18-1.33-.25-1.67-.23-.26.02-.35-.09-.26-.4.28-.74.78-2.82,1.03-4.17.06-.31.25-.4.44-.29.08.05.25.06.35.06.54,0,2.03,0,2.62-.03.41-.02.63-.06.94-.38.32-.31.61-.08.41.31-.58,1.12-1.06,1.23-1.21,1.26-.63.09-2.16.09-2.93.06-.06,0-.14.06-.15.12-.14.6-.41,1.86-.55,2.35-.02.06.03.06.09.09.65.09,1.18.2,1.72.31,2.16.48,3.21,1.47,3.21,2.9,0,1.23-.51,2.2-1.72,3.04-1.08.74-2.07.8-2.53.8-1.32,0-1.93-.54-2.16-.86Z" />
        <path class="cls-18"
          d="m269.19,467.22c0,.94.26,1.33.91,1.33.38,0,.54-.05.83-.15.32-.09.51.21.09.61-.43.35-.95.58-1.54.58-.74,0-1.44-.32-1.44-2.23v-4.24h-.2c-.69,0-.89,0-1.01-.01-.11-.02-.14-.11-.14-.2,0-.17.32-.51.42-.55.09-.03.21-.06.94-.06.01-1.37.08-1.7.12-1.83.11-.25.61-.68.86-.84.26-.17.43-.02.31.28-.08.17-.12.52-.14,2.39h.97c.35,0,.74-.02.83-.03.09-.01.12.03.12.14,0,.12-.08.51-.21.61-.06.08-.23.11-.91.11h-.8v4.08Z" />
        <path class="cls-18"
          d="m274.15,464.29v2.47c0,.8.02,1.26.03,1.44.03.41.06.54.68.66.52.09.46.55,0,.55-.35,0-.72-.03-1.29-.03s-.86.03-1.23.03c-.57,0-.57-.46,0-.55.46-.09.58-.17.61-.68.03-.55.03-.84.03-1.63v-6.06c0-1.01,0-1.34-.03-1.69-.03-.34-.12-.42-.92-.58-.34-.03-.45-.46.08-.52.42-.06.94-.17,1.44-.46.26-.15.41-.2.52-.2.15,0,.23.15.2.29-.11.45-.12.98-.12,1.81v4.01c0,.06.03.09.12.02.35-.31.84-.63,1.2-.83.4-.23.84-.34,1.23-.34,1.47,0,2.18,1.17,2.18,2.46v3.32c0,.17,0,.29.02.54.02.31.11.45.64.55.52.09.57.55-.01.55-.32,0-.8-.03-1.18-.03-.43,0-.66.03-1.26.03-.51,0-.57-.43-.08-.54.52-.12.64-.23.67-.57.02-.14.03-.45.03-1.38v-1.89c0-1.57-.74-2.01-1.75-2.01-.77,0-1.35.38-1.73.84-.08.09-.08.17-.08.41Z" />
        <path class="cls-18"
          d="m260.26,484.6c3.15-1.48,5.43-4,6.8-6.95.18-.4.1-.68-.2-.9-.36-.27-.56-.35-.56-.52s.32-.25.64-.23c.68.04,1.58.58,1.58.97,0,.28-.18.51-.48,1.14-1.35,2.8-3.88,5.64-7.57,7.01-.41.15-.61-.34-.21-.52Zm.74-7.83c1.27.27,2.27.94,2.36,1.82.04.49-.25.92-.62.92-.41,0-.5-.25-.74-.71-.35-.67-.72-1.14-1.25-1.59-.25-.21-.11-.52.25-.44Z" />
        <path class="cls-18"
          d="m270.57,479.71c.32.21.67.47,1.13.5,1.13.07,4.14-.16,5.06-.23,1.14-.1,1.45-.22,1.99-.22s1.35.31,1.35.87c0,.2-.14.35-.55.35s-.83-.09-1.62-.09c-1.56,0-4.13.21-5.06.32-.6.08-1.03.16-1.46.16-.57,0-1.21-.86-1.21-1.48,0-.23.17-.32.38-.18Z" />
        <path class="cls-18"
          d="m286.24,475.15c.63,0,1.41.37,1.41.72,0,.24-.36.98-.41,2.96,1.63.23,3.27,1,3.27,2.08,0,.32-.17.6-.57.6-.34,0-.57-.34-.82-.71-.42-.61-1-1.08-1.88-1.4,0,2.73.13,4.79.13,5.26,0,.51-.23.73-.56.73-.4,0-.69-.39-.69-1.1,0-.39.1-1.31.13-1.78.05-.73.13-1.9.13-3.03s0-2.14-.05-2.91c-.02-.42-.21-.62-.75-.86-.28-.12-.27-.37.02-.46.25-.08.43-.11.64-.11Zm3.04,1.52c-.26-.18-.17-.38.15-.34.65.07,1.15.25,1.47.53.32.28.44.51.43.85,0,.26-.2.42-.47.41-.23,0-.37-.2-.67-.6-.22-.29-.48-.53-.92-.85Zm1.26-1.03c-.29-.15-.21-.36.11-.35.62.01,1.15.17,1.52.45.3.23.43.46.43.8,0,.26-.17.44-.44.44-.23,0-.32-.17-.63-.55-.24-.31-.54-.54-.99-.78Z" />
        <path class="cls-18"
          d="m295.21,480.64c0-.58.48-1.06,1.06-1.06s1.06.48,1.06,1.06-.48,1.06-1.06,1.06-1.06-.48-1.06-1.06Z" />
        <path class="cls-18"
          d="m302.49,477.08c1.48-.13,4.06-.36,4.58-.43.31-.03.53-.33.79-.33.35,0,1.44.62,1.44.96,0,.24-.52.66-.76,1.19-1.46,3.25-3.62,5.34-7.22,6.74-.35.14-.55-.33-.21-.5,3.5-1.8,5.54-4.14,6.48-7.07.07-.21.01-.23-.19-.23-1.17,0-3.36.25-4.73.54.17,1.04.42,2.74.41,3.12,0,.28-.17.48-.45.48-.47,0-.75-.64-.77-1.01-.02-.34.03-1.06-.03-1.45-.11-.88-.4-1.57-1.04-2.12-.24-.21-.17-.34.19-.37.32-.02,1.31.04,1.52.47Z" />
        <path class="cls-18"
          d="m311.15,479.71c.32.21.67.47,1.13.5,1.13.07,4.14-.16,5.06-.23,1.14-.1,1.45-.22,1.99-.22s1.35.31,1.35.87c0,.2-.14.35-.55.35s-.83-.09-1.62-.09c-1.56,0-4.13.21-5.06.32-.6.08-1.03.16-1.46.16-.57,0-1.21-.86-1.21-1.48,0-.23.17-.32.38-.18Z" />
        <path class="cls-18"
          d="m324.62,478.73c-.27-.15-.57-.25-.57-.42s.31-.32.66-.32c.69,0,1.66.61,1.66,1.16,0,.3-.25.79-.6,1.43-.48.88-1.73,2.74-4.07,4.15-.36.22-.64-.28-.33-.51,2.01-1.51,3.74-4,3.74-4.85,0-.33-.16-.44-.49-.62h0Zm2.31-1.59c.72,0,1.54.44,1.54.84,0,.23-.09.62-.13,1.03-.05.61-.12,1.88-.14,2.34-.02.39.07.47.43.25,1.31-.82,2.94-2.31,4.32-3.72.31-.32.73.04.45.4-1.17,1.52-2.9,3.19-4.41,4.33-.39.29-.68.78-1.03.78s-.82-.65-.82-1.15c0-.35.17-.7.23-1.49.04-.57.08-1.47.03-1.92-.05-.47-.11-.68-.47-.86-.28-.14-.65-.27-.65-.45,0-.21.43-.37.67-.37Z" />
        <path class="cls-18"
          d="m336.61,475.15c.63,0,1.41.37,1.41.72,0,.24-.36.98-.41,2.96,1.63.23,3.27,1,3.27,2.08,0,.32-.17.6-.57.6-.34,0-.57-.34-.82-.71-.42-.61-1-1.08-1.88-1.4,0,2.73.13,4.79.13,5.26,0,.51-.23.73-.56.73-.4,0-.69-.39-.69-1.1,0-.39.1-1.31.13-1.78.05-.73.13-1.9.13-3.03s0-2.14-.05-2.91c-.02-.42-.21-.62-.75-.86-.28-.12-.27-.37.02-.46.25-.08.43-.11.64-.11Zm3.04,1.52c-.26-.18-.17-.38.15-.34.65.07,1.15.25,1.47.53.32.28.44.51.43.85,0,.26-.2.42-.47.41-.23,0-.37-.2-.67-.6-.22-.29-.48-.53-.92-.85Zm1.26-1.03c-.29-.15-.21-.36.11-.35.62.01,1.15.17,1.52.45.3.23.43.46.43.8,0,.26-.17.44-.44.44-.23,0-.32-.17-.63-.55-.24-.31-.54-.54-.99-.78Z" />
        <path class="cls-18"
          d="m295.4,490.72c0,2.84-3.11,5.6-6.15,8.67-.1.08-.1.18,0,.2.2.04,3,.16,4.91.16.71,0,1.08-.18,1.71-1.72.24-.65.73-.57.73.02s-.26,1.75-.55,2.54c-.2.57-.41.63-1.36.63s-6.21-.06-6.43-.06c-.24,0-.97.02-1.1.02-.34,0-.47-.45-.22-.67.26-.26.63-.61.75-.73,3.35-3.35,5.78-5.89,5.78-8.65,0-1.83-.87-2.82-2.54-2.82-1.2,0-1.97.49-2.92,1.64-.57.69-1.08.26-.65-.43.93-1.5,2.33-2.74,4.36-2.74,1.58,0,3.67,1.06,3.67,3.94Z" />
        <path class="cls-18"
          d="m301.03,500.04c0,.75-.57,1.38-1.32,1.38-.61,0-1.16-.47-1.16-1.24,0-.71.55-1.3,1.34-1.3.61,0,1.14.51,1.14,1.16Z" />
        <path class="cls-18"
          d="m303.63,500.32c-.18-.24-.22-.45-.22-.69s.12-.65.39-.97c.2-.24.43-.18.55.1.26.71,1.38,1.68,3.02,1.68,1.89,0,3.02-1.28,3.02-3.08,0-1.68-.77-2.84-3.61-3.55-.97-.24-1.77-.32-2.21-.3-.34.02-.47-.12-.34-.53.37-.97,1.03-3.73,1.36-5.52.08-.41.32-.53.59-.39.1.06.33.08.47.08.71,0,2.68,0,3.47-.04.55-.02.83-.08,1.24-.51.43-.41.81-.1.55.41-.77,1.48-1.4,1.62-1.6,1.67-.83.12-2.86.12-3.88.08-.08,0-.18.08-.2.16-.18.79-.55,2.46-.73,3.1-.02.08.04.08.12.12.85.12,1.56.26,2.27.41,2.86.63,4.24,1.95,4.24,3.83,0,1.62-.67,2.9-2.27,4.02-1.42.97-2.74,1.06-3.35,1.06-1.75,0-2.56-.71-2.86-1.14Z" />
        <rect class="cls-5" x="235.78" y="487.22" width="9.49" height="35.9" rx="1.43" ry="1.43" />
        <path class="cls-10"
          d="m247.11,480.28c0,3.64-2.95,6.58-6.58,6.58s-6.58-2.95-6.58-6.58,6.58-11.89,6.58-11.89c0,0,6.58,8.25,6.58,11.89Z" />
        <path class="cls-15"
          d="m244.95,482.65c0,2.33-1.98,4.22-4.43,4.22s-4.43-1.89-4.43-4.22,4.43-7.62,4.43-7.62c0,0,4.43,5.29,4.43,7.62Z" />
        <g class="cls-30">
          <rect class="cls-11" x="231.47" y="512.78" width="24.58" height="4.49"
            transform="translate(-224.86 190.88) rotate(-30)" />
          <rect class="cls-11" x="229.98" y="502.92" width="24.58" height="4.49"
            transform="translate(-220.13 188.81) rotate(-30)" />
          <rect class="cls-11" x="228.24" y="493.06" width="24.58" height="4.49"
            transform="translate(-215.43 186.62) rotate(-30)" />
        </g>
        <path class="cls-25"
          d="m311.88,517.33c0,6.62-5.37,11.98-11.98,11.98s-11.98-5.37-11.98-11.98,5.37-19.22,11.98-19.22,11.98,12.6,11.98,19.22Z" />
        <path class="cls-13" d="m295.01,509.19c-.12.51-.5.85-.84.77s-.52-.56-.4-1.06.63-1.4.97-1.32.39,1.11.27,1.62Z" />
        <path class="cls-13" d="m301.75,511.79c0,.52-.28.94-.63.94s-.63-.42-.63-.94.28-1.51.63-1.51.63.99.63,1.51Z" />
        <path class="cls-13" d="m306.44,509.24c.07.51-.15.97-.49,1.02s-.69-.33-.76-.84.06-1.53.41-1.58.77.89.84,1.4Z" />
        <path class="cls-13"
          d="m305.54,517.88c.19.49.07.98-.26,1.1s-.74-.17-.93-.65-.27-1.51.05-1.64.94.7,1.13,1.18Z" />
        <path class="cls-13" d="m298.7,516.9c0,.52-.28.94-.63.94s-.63-.42-.63-.94.28-1.51.63-1.51.63.99.63,1.51Z" />
        <path class="cls-13"
          d="m292.81,518.96c-.07.51-.41.89-.76.84s-.57-.51-.5-1.02.49-1.45.84-1.4.49,1.07.42,1.58Z" />
        <path class="cls-13" d="m297.43,523.97c0,.52-.28.94-.63.94s-.63-.42-.63-.94.28-1.51.63-1.51.63.99.63,1.51Z" />
        <path class="cls-13" d="m303.3,525.15c.04.52-.22.96-.57.98s-.66-.38-.7-.89.18-1.53.53-1.55.7.94.74,1.46Z" />
        <path class="cls-13" d="m309.94,521.28c.03.52-.22.96-.57.98s-.66-.38-.69-.9.18-1.52.53-1.55.7.95.73,1.46Z" />
        <path class="cls-25"
          d="m416.54,503.42c0,6.62-5.37,11.98-11.98,11.98s-11.98-5.37-11.98-11.98,5.37-19.22,11.98-19.22,11.98,12.6,11.98,19.22Z" />
        <path class="cls-13" d="m399.67,495.29c-.12.51-.5.85-.84.77s-.52-.56-.4-1.06.63-1.4.97-1.32.39,1.11.27,1.62Z" />
        <path class="cls-13" d="m406.41,497.88c0,.52-.28.94-.63.94s-.63-.42-.63-.94.28-1.51.63-1.51.63.99.63,1.51Z" />
        <path class="cls-13" d="m411.1,495.34c.07.51-.15.97-.49,1.02s-.69-.33-.76-.84.06-1.53.41-1.58.77.89.84,1.4Z" />
        <path class="cls-13" d="m410.2,503.97c.19.49.07.98-.26,1.1s-.74-.17-.93-.65-.27-1.51.05-1.64.94.7,1.13,1.18Z" />
        <path class="cls-13" d="m403.36,502.99c0,.52-.28.94-.63.94s-.63-.42-.63-.94.28-1.51.63-1.51.63.99.63,1.51Z" />
        <path class="cls-13"
          d="m397.47,505.05c-.07.51-.41.89-.76.84s-.57-.51-.5-1.02.49-1.45.84-1.4.49,1.07.42,1.58Z" />
        <path class="cls-13" d="m402.09,510.06c0,.52-.28.94-.63.94s-.63-.42-.63-.94.28-1.51.63-1.51.63.99.63,1.51Z" />
        <path class="cls-13" d="m407.96,511.24c.04.52-.22.96-.57.98s-.66-.38-.7-.89.18-1.53.53-1.55.7.94.74,1.46Z" />
        <path class="cls-13" d="m414.6,507.37c.03.52-.22.96-.57.98s-.66-.38-.69-.9.18-1.52.53-1.55.7.95.73,1.46Z" />
        <path class="cls-25"
          d="m208.65,504.37c0,6.62-5.37,11.98-11.98,11.98s-11.98-5.37-11.98-11.98,5.37-19.22,11.98-19.22,11.98,12.6,11.98,19.22Z" />
        <path class="cls-13" d="m191.78,496.24c-.12.51-.5.85-.84.77s-.52-.56-.4-1.06.63-1.4.97-1.32.39,1.11.27,1.62Z" />
        <path class="cls-13" d="m198.51,498.83c0,.52-.28.94-.63.94s-.63-.42-.63-.94.28-1.51.63-1.51.63.99.63,1.51Z" />
        <path class="cls-13" d="m203.21,496.29c.07.51-.15.97-.49,1.02s-.69-.33-.76-.84.06-1.53.41-1.58.77.89.84,1.4Z" />
        <path class="cls-13"
          d="m202.31,504.92c.19.49.07.98-.26,1.1s-.74-.17-.93-.65-.27-1.51.05-1.64.94.7,1.13,1.18Z" />
        <path class="cls-13" d="m195.47,503.95c0,.52-.28.94-.63.94s-.63-.42-.63-.94.28-1.51.63-1.51.63.99.63,1.51Z" />
        <path class="cls-13" d="m189.58,506c-.07.51-.41.89-.76.84s-.57-.51-.5-1.02.49-1.45.84-1.4.49,1.07.42,1.58Z" />
        <path class="cls-13" d="m194.2,511.01c0,.52-.28.94-.63.94s-.63-.42-.63-.94.28-1.51.63-1.51.63.99.63,1.51Z" />
        <path class="cls-13" d="m200.06,512.19c.04.52-.22.96-.57.98s-.66-.38-.7-.89.18-1.53.53-1.55.7.94.74,1.46Z" />
        <path class="cls-13" d="m206.71,508.32c.03.52-.22.96-.57.98s-.66-.38-.69-.9.18-1.52.53-1.55.7.95.73,1.46Z" />
      </g><text class="cls-23" transform="translate(98.79 140.55) rotate(-46.04)">
        <tspan x="0" y="0">祝</tspan>
      </text><text class="cls-23" transform="translate(141.96 97.99) rotate(-33.19)">
        <tspan x="0" y="0">5</tspan>
      </text><text class="cls-23" transform="translate(179.42 73.25) rotate(-22.42)">
        <tspan x="0" y="0">周</tspan>
      </text><text class="cls-23" transform="translate(224.17 54.63) rotate(-11.49)">
        <tspan x="0" y="0">年</tspan>
      </text><text class="cls-23" transform="translate(271.64 44.96) rotate(-.93)">
        <tspan x="0" y="0">！</tspan>
      </text><text class="cls-23" transform="translate(332.28 45.6) rotate(12.28)">
        <tspan x="0" y="0">S</tspan>
      </text><text class="cls-23" transform="translate(374.83 54.55) rotate(22.54)">
        <tspan x="0" y="0">W</tspan>
      </text><text class="cls-23" transform="translate(418.63 72.79) rotate(32.75)">
        <tspan x="0" y="0">2</tspan>
      </text><text class="cls-23" transform="translate(455.08 97.11) rotate(39.56)">
        <tspan x="0" y="0">.</tspan>
      </text><text class="cls-23" transform="translate(468.77 107.37) rotate(46.25)">
        <tspan x="0" y="0">5</tspan>
      </text>
    </g>
  </g>
</svg>